<svg xmlns="http://www.w3.org/2000/svg" xmlns:xlink="http://www.w3.org/1999/xlink" width="144" height="112" viewBox="0 0 144 112">
  <defs>
    <clipPath id="clip-path">
      <path id="Path_3" data-name="Path 3" d="M140.164,81.783a15.653,15.653,0,0,0-15.645-15.645H47.694a15.645,15.645,0,0,0,0,31.29h76.825a15.653,15.653,0,0,0,15.645-15.645Z" clip-rule="evenodd"/>
    </clipPath>
    <clipPath id="clip-path-2">
      <path id="Path_7" data-name="Path 7" d="M85.753,81.68A15.654,15.654,0,0,0,70.108,66.034H47.591a15.646,15.646,0,1,0,0,31.291H70.108A15.653,15.653,0,0,0,85.753,81.68Z" clip-rule="evenodd"/>
    </clipPath>
    <clipPath id="clip-path-3">
      <path id="Path_23" data-name="Path 23" d="M46.734,101.96s4.528-5.884,4.949-11.581c1.317-17.834,7.1-20.3,7.088-31.329,0-3.831-.533-8.292-2.206-11.776-3.677-7.657-12.513-12.933-21.065-12.9a33.629,33.629,0,0,0-9.926,1.9c-11.3,3.533-15.6,14.656-16.082,24.618-.215,4.411,2.225,11.805.876,16.015-2.812,8.776-3.409,13.7-1.69,20.023,1.466,5.39,10.075,10.857,20.449,11.707,1.768.144,12.483.271,17.607-6.678Z" clip-rule="evenodd"/>
    </clipPath>
  </defs>
  <g id="Group_7" data-name="Group 7" transform="translate(-1187 -212)">
    <g id="_48" data-name="48" transform="translate(1187 194)">
      <rect id="_4" width="144" height="112" transform="translate(0 18)" fill="none"/>
      <g id="Group_6" data-name="Group 6">
        <path id="Path_1" data-name="Path 1" d="M140.164,81.783a15.653,15.653,0,0,0-15.645-15.645H47.694a15.645,15.645,0,0,0,0,31.29h76.825a15.653,15.653,0,0,0,15.645-15.645Z" fill="#343d4c" fill-rule="evenodd"/>
        <g id="Group_1" data-name="Group 1" clip-path="url(#clip-path)">
          <path id="Path_2" data-name="Path 2" d="M71.511,97.428l-.16-11.222s44.255,1.061,52.268.424,14.433-3.343,16.4-7.535,8.649,0,5.465,7.854-6.9,16.343-21.915,15.017S71.511,97.428,71.511,97.428Z" fill="#242a34" fill-rule="evenodd"/>
        </g>
        <path id="Path_4" data-name="Path 4" d="M140.164,81.783a15.653,15.653,0,0,0-15.645-15.645H47.694a15.645,15.645,0,0,0,0,31.29h76.825a15.653,15.653,0,0,0,15.645-15.645Z" fill="none" stroke="#000" stroke-linecap="round" stroke-linejoin="round" stroke-miterlimit="1.5" stroke-width="1.79" fill-rule="evenodd"/>
        <path id="Path_5" data-name="Path 5" d="M85.753,81.68A15.654,15.654,0,0,0,70.108,66.034H47.591a15.646,15.646,0,1,0,0,31.291H70.108A15.653,15.653,0,0,0,85.753,81.68Z" fill="#9eff74" fill-rule="evenodd"/>
        <g id="Group_2" data-name="Group 2" clip-path="url(#clip-path-2)">
          <path id="Path_6" data-name="Path 6" d="M46.915,86.379H70.993L69.334,97.456,47.048,97.39l-.133-11.011Z" fill="rgba(68,150,33,0.5)" fill-rule="evenodd"/>
        </g>
        <path id="Path_8" data-name="Path 8" d="M85.753,81.68A15.654,15.654,0,0,0,70.108,66.034H47.591a15.646,15.646,0,1,0,0,31.291H70.108A15.653,15.653,0,0,0,85.753,81.68Z" fill="none" stroke="#000" stroke-linecap="round" stroke-linejoin="round" stroke-miterlimit="1.5" stroke-width="1.79" fill-rule="evenodd"/>
        <path id="Path_42" data-name="Path 42" d="M22.534,0A22.534,22.534,0,1,1,0,22.534,22.534,22.534,0,0,1,22.534,0Z" transform="translate(58.5 57.5)" fill="#fff" stroke="#000" stroke-linecap="round" stroke-width="1.79"/>
        <g id="Group_5" data-name="Group 5">
          <path id="Path_9" data-name="Path 9" d="M15.4,48.048c.015-.744-1.255-2.124-1.822-2.489C6.684,41.118,7.7,50.17,12.105,50.646" fill="#61e0ee" fill-rule="evenodd"/>
          <path id="Path_10" data-name="Path 10" d="M10.444,43.443h.127l.031,0,.032,0,.032,0,.032,0,.033,0,.032,0,.032,0,.033,0,.032,0,.033,0,.032,0,.033.005.033.005.033.005.033.005.033.006.033.006.034.006.033.007.034.006.033.007.034.008.034.007.034.008.034.008.034.009.034.008.034.009.034.009.035.01.034.009.035.01.035.01.035.011.035.011.035.01.035.012.035.011.036.012.035.012.036.012.036.013.036.013.036.013.036.013.036.014.036.014.037.014.036.014.037.015.037.015.037.015.038.016.073.032.075.033.076.034.075.035.077.036.077.037.077.039.079.039.078.041.079.042.08.043.08.044.081.045.082.047.081.047.083.049.083.05.084.051.084.052.085.054.089.056.039.026.042.029.041.03.041.03.041.031.041.032.041.033.041.033.041.035.041.036.042.036.041.037.042.039.042.039.042.039.043.041.042.042.043.042.042.043.043.044.043.045.043.045.043.046.043.047.043.047.042.048.043.049.042.049.042.049.042.05.042.051.041.052.041.051.041.052.04.053.039.053.039.053.039.054.038.054.037.055.037.055.036.055.035.055.018.03.017.028.017.028.017.029.017.028.016.028.016.029.016.029.016.029.015.029.015.03.015.029.015.03.014.029.015.031.014.03.013.03.014.031.013.031.012.031.013.031.012.032.012.031.011.032.011.033.011.033.009.033.01.033.01.035.008.035.008.034.008.035.007.036.007.037.006.037,0,.038,0,.038,0,.038,0,.04v.111l0,.049,0,.049-.007.048-.01.049-.012.047-.016.047-.017.046-.02.045-.023.044-.025.042-.027.041-.029.04-.032.038-.034.036L16,48.71l-.037.032-.04.03-.04.028-.042.025-.044.023-.044.021-.046.018-.047.016-.047.013-.048.01-.049.008-.049.005-.049,0H15.37l-.05,0-.049-.006-.048-.008-.048-.011-.047-.014-.047-.017-.045-.018-.045-.022-.043-.024-.041-.026-.041-.028-.038-.03-.037-.033-.035-.035-.033-.036-.031-.038-.029-.04-.027-.042-.024-.042-.022-.045-.02-.045-.016-.046-.015-.047-.012-.048-.009-.048-.006-.049,0-.049v-.055l0-.006v-.005l0-.007,0-.009,0-.008,0-.009,0-.009,0-.011,0-.011,0-.011-.005-.012-.005-.012-.006-.013-.006-.014-.006-.013-.007-.014-.007-.015-.007-.015-.008-.015-.008-.016-.009-.016-.008-.016-.009-.016-.009-.016-.011-.018-.009-.017-.01-.017-.011-.018-.011-.018-.01-.016L14.29,47.6l-.025-.037-.025-.038-.026-.038-.027-.038-.028-.039-.028-.039-.029-.039-.03-.04-.031-.039-.031-.039-.031-.039-.033-.039-.032-.039-.033-.039-.033-.039-.033-.037-.033-.038-.034-.037-.034-.037-.033-.036-.034-.035-.033-.035-.033-.033-.033-.034-.033-.032-.032-.032-.031-.03-.032-.029-.03-.029-.03-.027-.029-.026-.029-.025-.027-.024-.026-.022-.025-.021-.024-.019-.022-.017-.021-.016-.019-.014-.016-.012-.015-.009-.014-.01-.073-.046-.074-.047-.074-.046-.073-.044-.072-.044-.071-.042-.07-.04-.07-.04-.068-.038-.068-.038-.067-.036-.066-.035-.065-.033-.064-.033-.064-.031-.062-.031-.062-.029-.061-.028-.06-.027-.059-.026-.059-.025-.028-.012-.028-.012-.028-.011-.029-.011-.027-.011-.028-.011-.028-.011-.027-.01-.027-.01-.026-.01-.027-.009-.026-.009-.026-.009L11.31,45.4l-.026-.009-.025-.008-.025-.008-.025-.008-.025-.007-.024-.008-.024-.007-.024-.007-.024-.006-.023-.007-.024-.006-.023-.006L11,45.312l-.023-.006-.022-.005-.022-.005-.022-.005-.022-.005-.021,0-.021-.005-.021,0-.021,0-.02,0-.02,0-.02,0-.02,0-.019,0-.02,0-.019,0-.018,0-.019,0-.018,0-.018,0h-.018l-.017,0h-.314l-.013,0h-.012l-.012,0-.012,0-.011,0-.012,0-.011,0-.011,0-.011,0-.01,0-.01,0-.011,0-.01,0-.01,0-.009,0-.01,0-.009,0-.009,0-.009,0-.009,0-.008,0-.008,0-.009,0-.008,0-.008,0-.008,0-.007,0-.008,0-.007,0-.008,0-.007,0-.007,0-.007,0-.007,0-.007,0-.006,0-.007,0-.006,0-.006,0-.007,0-.006,0-.006,0-.006,0-.005,0-.006,0-.006,0-.006.005-.005,0-.006,0-.005.005-.006,0-.005.005-.006,0-.005.005-.006.005,0,0-.005.005-.006.005-.005.005-.005.005-.005.006-.005.005-.005.005-.005.006-.005.005,0,.005-.006.007,0,.005-.005.006-.005.007L9.72,45.5l0,.005-.005.007-.005.007,0,.006-.005.006-.005.008,0,.007-.005.007,0,.007-.005.007,0,.007-.005.008,0,.006-.01.018-.008.016-.009.016-.008.018-.008.017-.008.019-.008.019-.007.019-.008.02-.007.02-.007.022-.006.021-.007.022-.006.023-.006.023-.006.024-.005.024-.005.024-.005.025-.005.026,0,.026,0,.027,0,.027,0,.028,0,.027,0,.028,0,.029,0,.03v.214l0,.032v.032l0,.033,0,.033,0,.033,0,.033,0,.034,0,.034.005.034,0,.034.005.035.006.035.006.035.006.035.007.035.007.036.007.035.008.036.009.036.009.036.009.035.009.037.01.036.01.036.011.036.011.037.012.036.012.036.012.037.013.036.013.037.014.036.013.036.015.036.014.037.015.036.016.036.016.036.016.036.016.036.017.036.017.036.018.035L9.921,48l.018.035.019.035.019.035.019.035.02.034.02.035.021.034.02.034.021.034.022.033.021.034.022.033.023.033.022.032.024.033.023.032.023.032.024.031.024.031.025.031.025.031.025.03.025.03.026.03.025.029.027.029.026.029.027.028.027.028.027.028.027.027.028.027.028.026.028.026.028.026.029.025.029.025.029.024.029.024.029.024.03.023.03.022.03.022.031.022.03.022.031.02.031.021.031.02.031.019.032.02.031.018.032.018.032.018.033.017.032.017.033.016.032.016.033.015.034.015.034.015.016.006.017.007.016.007.017.006.017.007.017.006.017.006.017.006.018.006.017.006.017.006.017.005.018.006.017.005.017.005.018.006.018,0,.017.005.018.005.018,0,.017.005.018,0,.018,0,.018,0,.018,0,.018,0,.018,0,.019,0,.018,0,.018,0,.019,0,.018,0,.019,0,.018,0,.019,0,.019,0,.018,0,.023,0,.048.007.049.009.047.012.047.015.046.017.046.02.043.022.043.025.041.027.04.029.038.032.036.033.034.035.033.038.03.038.028.041.026.042.023.043.021.045.018.045.016.047.014.047.01.048.008.049.006.049,0,.049v.049l0,.05-.006.048-.008.049-.011.048-.013.047-.016.047-.019.046-.021.044-.023.043-.026.042-.028.041-.031.038-.032.038-.034.035-.037.033-.038.031-.039.029-.042.027-.042.025-.044.022-.045.02-.046.017-.048.015-.047.012-.049.009-.048.007-.049,0h-.1l-.049,0-.029,0-.033,0-.032,0-.033,0-.032-.005-.033-.005-.032-.005L11.75,51.5l-.032-.006-.032-.006-.032-.006-.032-.006-.031-.007-.031-.007-.032-.007-.031-.007-.031-.007-.031-.008-.032-.008-.03-.008-.031-.009-.031-.008-.03-.009-.031-.009-.03-.009-.03-.01-.03-.01-.031-.009-.029-.011-.03-.01-.03-.011-.029-.01-.03-.011-.029-.011-.029-.012-.029-.011-.029-.012-.031-.013-.055-.023-.057-.026-.056-.026-.056-.026-.055-.028-.055-.028-.054-.029-.054-.029-.053-.031-.052-.031-.052-.031-.052-.032-.051-.033-.05-.033-.051-.035-.049-.034-.049-.035-.048-.036-.048-.036-.047-.037-.047-.037L9.7,50.536,9.651,50.5l-.045-.038-.045-.04-.044-.039-.044-.041L9.43,50.3l-.042-.042-.042-.041L9.3,50.174l-.04-.043-.041-.042-.04-.044L9.144,50,9.1,49.958l-.038-.045-.038-.044-.037-.045-.036-.045-.037-.046-.036-.047-.034-.046-.035-.046-.034-.047L8.746,49.5l-.033-.047L8.681,49.4l-.032-.048-.032-.048-.031-.049-.03-.049-.03-.049L8.5,49.112l-.029-.049-.028-.05-.028-.05-.028-.05-.026-.051-.027-.05-.025-.051L8.28,48.71l-.024-.051-.024-.051-.024-.051L8.185,48.5l-.023-.052L8.14,48.4l-.021-.052L8.1,48.3l-.021-.052-.02-.053-.019-.052-.019-.053L8,48.036l-.017-.053-.018-.052-.016-.053-.017-.053-.015-.053L7.9,47.719l-.015-.053-.014-.053-.014-.054-.012-.053-.013-.053L7.822,47.4l-.011-.054L7.8,47.293l-.01-.053-.009-.054-.009-.053-.009-.053-.008-.054-.007-.053-.007-.053-.006-.054-.005-.053-.005-.053-.005-.054,0-.053,0-.053,0-.053,0-.053v-.212l0-.053,0-.052,0-.053,0-.052,0-.052.005-.053.005-.053.007-.051.007-.052.007-.052.009-.052.009-.052.01-.051.011-.052L7.8,45.5l.012-.051.014-.051.014-.05.015-.051.015-.05.017-.05.017-.05.018-.049.02-.05L7.965,45l.021-.048.022-.049.023-.048.024-.048.025-.047.025-.045.014-.026.014-.022.014-.024.014-.023.014-.023.015-.023.015-.022.015-.022.015-.023.016-.023.016-.021.016-.022.017-.022.017-.022.016-.021.018-.022.017-.021.017-.021.019-.021.019-.021.018-.02.018-.02.02-.021L8.5,44.19l.021-.02.02-.02.019-.019.021-.019.021-.02.021-.018.02-.018.022-.019.021-.018L8.7,44l.022-.017.023-.018.022-.017.023-.017.023-.016.023-.017.024-.016.023-.015.025-.016.024-.016.024-.014.024-.015.026-.015.025-.014.025-.014.025-.014.026-.013.025-.013.026-.013L9.19,43.7l.026-.013.026-.012.027-.011.027-.011.027-.012.027-.01.027-.011.028-.01.027-.01.028-.009.028-.009.028-.009.029-.009.028-.008.028-.008.029-.008.029-.007.029-.008.029-.006.029-.007.029-.006L9.8,43.5l.03-.006.03-.005.029-.005.03-.005.03,0,.03,0,.03,0,.03,0,.03,0,.031,0,.03,0,.031,0,.031,0h.03l.031,0h.187Z" fill-rule="evenodd"/>
          <path id="Path_11" data-name="Path 11" d="M49.279,80.064s6.379-1.89,9.414.736,1.428,5.705-1.473,4.72-5.714-1.659-7.852-.443S45.243,81.218,49.279,80.064Z" fill="#d6c295" stroke="#000" stroke-linecap="round" stroke-linejoin="round" stroke-miterlimit="1.5" stroke-width="1.34" fill-rule="evenodd"/>
          <path id="Path_12" data-name="Path 12" d="M45.861,33.409s-2.464-3.764-5.071,3.8" fill="none" stroke="#61e0ee" stroke-linecap="round" stroke-linejoin="round" stroke-miterlimit="1.5" stroke-width="1.34" fill-rule="evenodd"/>
          <path id="Path_13" data-name="Path 13" d="M35.415,30.658s3.508-2.512,3.022,5.717" fill="none" stroke="#61e0ee" stroke-linecap="round" stroke-linejoin="round" stroke-miterlimit="1.5" stroke-width="1.34" fill-rule="evenodd"/>
          <path id="Path_14" data-name="Path 14" d="M43.9,29.575s-3.033-2.842-4.063,6.158" fill="none" stroke="#61e0ee" stroke-linecap="round" stroke-linejoin="round" stroke-miterlimit="1.5" stroke-width="1.34" fill-rule="evenodd"/>
          <path id="Path_15" data-name="Path 15" d="M46.816,110s-.516-6.633-4.053-8.528-5.839.706-3.882,3.063,3.593,4.743,3.222,7.175,5.079,2.473,4.713-1.71Z" fill="#d6c295" stroke="#000" stroke-linecap="round" stroke-linejoin="round" stroke-miterlimit="1.5" stroke-width="1.34" fill-rule="evenodd"/>
          <path id="Path_16" data-name="Path 16" d="M12.5,111.438s4.678-4.731,3.8-8.645-4.354-3.953-4.856-.931-1.236,5.82-3.317,7.131,1.454,5.459,4.377,2.445Z" fill="#d6c295" stroke="#000" stroke-linecap="round" stroke-linejoin="round" stroke-miterlimit="1.5" stroke-width="1.34" fill-rule="evenodd"/>
          <path id="Path_17" data-name="Path 17" d="M56.9,50.006a2.185,2.185,0,0,0,2.056-.216c7.293-3.752-1.036-7.364-3.652-3.783" fill="#61e0ee" fill-rule="evenodd"/>
          <path id="Path_18" data-name="Path 18" d="M58.546,43.641h.114l.057,0,.057,0,.056,0,.057,0,.056,0,.057.005.056.005.056.005.056.006.056.007.055.007.056.008.055.008.055.008.055.009.055.01.055.01.054.011.054.011.054.012.054.012.054.013.053.013.053.013.053.015.053.014.053.015.052.016.052.016.052.017.051.017.051.018.051.018.051.018.05.019.05.02.05.02.049.021.05.021.049.022.048.022.048.023.048.023.048.023.047.024.047.025.046.025.046.026.046.027.045.026.045.028.045.028.044.028.044.029.043.029.043.031.043.03.041.032.042.031.041.033.041.033.04.033.039.034.039.035.039.036.038.036.037.036.037.037.036.038.036.039.035.039.034.04.034.041.033.041.033.041.031.043.031.043.031.044.029.045.028.044.027.044.015.026.013.023.013.024.013.023.012.024.013.024.012.023.012.026.012.025.011.024.011.024.011.026.011.025.01.024.01.026.01.025.01.027.009.026.009.026.009.026.008.026.008.027.008.026.008.026.007.028.007.026.006.027.007.027.006.028.006.028.005.027.005.027.005.028.005.028,0,.027,0,.029,0,.028,0,.027,0,.029,0,.029,0,.028v.028l0,.028v.2l0,.028v.029l0,.029,0,.028,0,.03,0,.029,0,.028,0,.029,0,.029,0,.028-.005.03-.005.029-.006.028-.005.029-.006.028-.007.03-.006.028-.007.028-.008.029-.008.029-.008.028-.008.029-.009.029-.009.028-.009.028-.009.028-.01.028-.011.029-.011.028-.01.028-.011.028-.012.028-.012.028-.012.028-.012.027-.013.028-.013.027-.013.028-.014.028-.014.027-.014.027L62.435,48l-.015.027-.015.027-.016.027-.015.027-.016.028-.016.026-.017.027-.017.027-.017.027-.017.026-.018.027-.018.026-.018.027-.019.026-.018.027-.019.026-.019.026-.02.026-.02.026-.02.026-.021.026-.02.026-.021.026L62,48.639l-.022.026-.022.025-.022.026-.022.025-.023.026-.023.026-.023.025-.023.025-.024.026-.024.025-.025.026-.024.025-.025.025L61.675,49l-.025.025-.026.025-.026.025-.026.025-.027.025-.026.025-.027.024-.028.025-.027.025-.028.025-.029.025-.028.024-.029.025-.029.024-.029.025-.03.024-.03.025-.03.024-.031.025-.031.025-.062.048-.063.048-.065.049-.066.048-.067.048-.069.049-.069.048-.071.047-.072.048-.074.048-.074.048-.076.047-.077.048-.078.047-.08.048-.08.047-.083.047-.083.047-.085.047-.086.047-.088.047-.088.047-.091.047-.064.032-.034.017-.034.017-.035.017-.035.016-.035.017-.036.016-.036.016-.037.017-.037.016-.038.016-.038.015-.038.016-.039.015-.04.015-.04.015-.04.015-.041.014-.041.014-.042.014-.042.013-.042.013-.043.013-.043.012-.044.012-.044.011L58.283,51l-.045.01-.045.01-.046.009-.047.009-.047.008-.047.007-.048.007-.048.006-.049.005-.049,0-.05,0-.05,0-.05,0h-.154l-.05,0H57.43l-.026,0-.027,0-.026,0-.027,0-.026,0-.027,0-.027,0-.027,0-.026-.005-.027-.005-.027-.005-.027-.005-.027-.006-.027-.006-.027-.007L57,51.008,56.974,51l-.027-.008-.027-.008-.027-.009-.027-.008-.027-.01-.027-.009-.027-.01-.028-.011-.026-.011-.027-.011-.027-.012-.027-.012-.026-.012-.027-.013-.027-.013-.026-.014-.026-.014-.026-.015-.026-.015-.021-.012-.041-.026-.039-.028-.038-.03-.036-.032-.034-.034-.033-.036-.03-.038-.029-.039-.026-.04-.024-.042-.022-.044-.019-.044-.017-.045-.014-.046-.012-.047-.01-.048-.006-.048-.005-.048v-.1l0-.048.006-.048.009-.047.011-.047.014-.047.017-.045.019-.045.021-.043.024-.043.025-.04.028-.04.031-.038.032-.036.034-.034.036-.033.037-.03.039-.029.041-.026.042-.024.043-.022.045-.019.045-.017.046-.014.047-.012.047-.01.048-.006.049,0,.048,0h.048l.049,0,.048.006.047.009.047.011.046.014.046.017.044.019.044.021.042.024.01.005,0,0,0,0,0,0,0,0,0,0,0,0,0,0,.005,0,0,0,0,0h0l.005,0,0,0h0l.005,0h.005l0,0h.005l.005,0h.01l.005,0h.206l.018,0,.019,0,.019,0,.02,0,.02,0,.02,0,.021,0,.021-.005.022,0,.022-.005.022-.006.023-.005.023-.007.023-.006.023-.007.024-.007.024-.008.024-.008.024-.008.024-.008.024-.009.025-.009.024-.01.025-.01.025-.01.025-.01.024-.01.025-.011.025-.011.024-.011.025-.011.025-.012.024-.011.025-.012.024-.012.023-.012.05-.025.079-.041.078-.041.076-.041.075-.041.073-.04L59,48.75l.071-.04.069-.041.068-.04.066-.04.064-.04.064-.04.061-.039.061-.04.059-.039.057-.039.057-.039.054-.038.054-.038.052-.039.051-.037.049-.038.049-.038.023-.018.023-.019.022-.018.023-.018.022-.019.022-.018.021-.018.022-.018.021-.018.02-.018.02-.018.02-.018.019-.018.02-.017.019-.018.018-.017.018-.018.019-.017.017-.017.017-.017.018-.017.016-.017.017-.017.016-.017.015-.017.016-.016.015-.017.015-.016.015-.016.014-.016.014-.016.013-.016.014-.016.013-.016.013-.015.013-.016.012-.015.012-.015.011-.016.012-.015.011-.014.011-.015.011-.015.01-.015.01-.014.01-.014.009-.014.01-.014.009-.014.009-.014.008-.014.008-.013.009-.014.007-.012.008-.014.007-.013.007-.012.007-.013.007-.013.006-.012.007-.013.005-.012.006-.011.006-.012.005-.012.005-.012.006-.012,0-.011.005-.01,0-.011L60.931,47l0-.011,0-.01,0-.01,0-.011,0-.01,0-.01,0-.01,0-.01,0-.01,0-.009,0-.009,0-.01,0-.009,0-.009,0-.009,0-.009V46.84l0-.008v-.017l0-.008v-.183l0-.007V46.6l0-.006v-.013l0-.007,0-.008,0-.006,0-.007,0-.007,0-.006,0-.007,0-.007,0-.007,0-.007,0-.007,0-.007,0-.007,0-.007,0-.007,0-.006,0-.008,0-.008,0-.007,0-.006,0-.008,0-.008,0-.006,0-.008-.005-.008,0-.007,0-.005-.011-.017-.01-.016-.01-.015-.011-.016-.011-.015-.011-.016-.013-.016-.013-.016-.013-.016-.014-.016-.015-.017-.014-.016-.016-.016-.017-.017-.016-.016-.018-.017-.018-.016-.018-.017-.02-.016-.02-.017-.02-.016-.02-.017-.022-.016-.022-.017-.023-.016-.023-.016-.023-.016-.024-.016-.025-.016-.025-.016-.026-.015-.026-.016-.027-.015-.027-.016-.028-.015-.028-.014-.028-.015-.029-.014-.03-.015-.03-.014-.03-.014-.031-.013-.031-.014-.032-.013-.032-.013-.032-.013-.033-.012-.033-.012-.033-.012-.034-.012-.034-.011-.035-.011-.034-.011-.036-.01-.035-.011-.036-.01-.036-.009L59.5,45.55l-.036-.009-.037-.009-.037-.008-.037-.008-.037-.008-.038-.008-.038-.007-.038-.006-.038-.007-.038-.006-.039-.005-.038-.005-.039-.005-.039-.005-.039,0-.039,0-.04,0-.039,0-.039,0-.04,0-.039,0h-.04l-.04,0h-.238l-.04,0-.04,0-.04,0-.039,0-.04,0-.039,0-.04,0-.039,0-.04.005-.039.005-.039.005-.039.006-.039.006-.038.007-.039.007-.038.007-.039.008-.038.009-.038.008-.038.009-.037.01-.038.01-.037.01-.037.011-.037.011-.036.011-.037.012-.036.012-.036.013-.035.013-.036.014-.035.013-.035.015-.034.014-.034.015-.035.016-.033.016-.034.016-.033.017-.033.017-.033.017-.032.018-.032.018-.032.019-.031.019-.031.019-.031.02-.03.02-.03.021-.03.021-.029.022-.029.021-.031.024-.013.01-.013.011-.014.012-.015.012-.014.011-.013.012-.015.012-.013.012-.013.012-.014.012-.014.013-.013.012-.013.013-.013.012-.013.013-.013.013-.013.013-.013.013-.013.014-.012.013-.013.013-.013.014-.012.014-.012.013-.012.014-.012.014-.013.015-.012.014-.011.014-.012.014-.012.016-.012.014-.011.015-.011.015-.012.015-.013.019-.03.038-.032.036-.034.035-.035.033-.037.031-.039.028-.041.027-.042.025-.043.022-.044.019-.045.018-.046.015-.047.012-.047.01-.048.007-.048.005-.048,0H55.27l-.048,0-.048-.006-.048-.008-.047-.011-.046-.014-.046-.016-.045-.018L54.9,46.8l-.043-.023-.041-.026-.04-.028-.038-.029-.036-.032-.035-.034-.033-.035-.031-.038-.029-.039-.026-.04-.025-.042-.022-.043-.019-.044-.018-.045-.015-.046-.012-.047-.01-.047-.007-.048-.005-.048,0-.049v-.048l0-.048.006-.048.008-.048.011-.047.014-.047.016-.045.018-.045.021-.044.023-.042.026-.041.028-.04.017-.023.019-.026.02-.027.021-.026.02-.026.02-.025.02-.025.021-.025.021-.025.021-.025.021-.024.021-.025.022-.024.022-.024.021-.023.022-.024.023-.023.022-.023.022-.023L55,44.988l.023-.022.023-.022.023-.022L55.1,44.9l.023-.022.023-.021.023-.021.024-.021.024-.022.024-.02.024-.02.024-.021.024-.019.024-.02.025-.02.025-.02.048-.037.05-.038.05-.036.051-.036.05-.035.052-.034.051-.033.052-.033.053-.032.052-.031.053-.03L56,44.249l.053-.029.054-.028.054-.027.054-.027.055-.025.055-.025.055-.024.055-.024.055-.022L56.546,44l.056-.022.056-.02.056-.02.056-.019.057-.018.056-.018.057-.017L57,43.845l.056-.015.057-.015.058-.015.057-.013.057-.014.057-.012.058-.012.057-.011.058-.01.057-.01.058-.01.057-.008.058-.008.057-.008.058-.006.057-.007.058-.005.058-.005.057-.005.058,0,.057,0,.058,0,.057,0h.229Z" fill-rule="evenodd"/>
          <path id="Path_19" data-name="Path 19" d="M46.734,101.96s4.528-5.884,4.949-11.581c1.317-17.834,7.1-20.3,7.088-31.329,0-3.831-.533-8.292-2.206-11.776-3.677-7.657-12.513-12.933-21.065-12.9a33.629,33.629,0,0,0-9.926,1.9c-11.3,3.533-15.6,14.656-16.082,24.618-.215,4.411,2.225,11.805.876,16.015-2.812,8.776-3.409,13.7-1.69,20.023,1.466,5.39,10.075,10.857,20.449,11.707,1.768.144,12.483.271,17.607-6.678Z" fill="#61e0ee" fill-rule="evenodd"/>
          <g id="Group_3" data-name="Group 3" clip-path="url(#clip-path-3)">
            <path id="Path_20" data-name="Path 20" d="M20.383,39.68s-4.973,7.683-4.156,14.814,2.716,17.222.37,26.517-2.486,15.558-.9,18.611c3.194,6.166,14.492,9.092,17.561,8.806s-12.047.843-19.662-4.031S7.432,85.323,10.152,76.788,6.35,64.445,11.5,49.818c5.4-8.12,5.388-7.6,8.879-10.138Z" fill="#4fcbe0" fill-rule="evenodd"/>
            <path id="Path_21" data-name="Path 21" d="M31.706,55.174s-1.981,4.921-8.019,3.481-5.3-7.742-5.3-7.742Z" fill="#4fcbe0" fill-rule="evenodd"/>
            <path id="Path_22" data-name="Path 22" d="M58.255,57.46s-1.981,4.922-8.019,3.481-5.3-7.741-5.3-7.741l13.316,4.26Z" fill="#4fcbe0" fill-rule="evenodd"/>
          </g>
          <path id="Path_24" data-name="Path 24" d="M35.706,33.481h.209l.1,0,.1,0,.1,0,.1,0,.1,0,.1,0,.1.005.1.005.1.006.1.006.1.007.1.007.1.008.1.008.1.009.1.009.1.01.1.01.1.011.1.011.1.012.1.012.1.013.1.013.1.013.1.014.1.015.1.015.1.015.1.016.1.017.1.016.1.018.1.018.1.018.1.018.1.02.1.019.1.02.1.021.1.021.1.021.1.022.1.022.1.023.1.024.1.023.1.024.1.025.1.025.1.025.1.026.1.027.1.026.1.028.1.027.1.028.1.029.1.029.1.029.1.03.1.031.1.03.1.031.1.032.1.032.1.032.1.033.1.033.1.034.1.034.1.035.1.035.1.035.1.036.1.036.1.037.1.037.1.037.1.038.1.038.1.039.1.039.1.04.1.04.1.04.1.041.1.041.1.041.1.042.1.042.1.043.1.043.1.044.1.044.1.044.1.045.1.045.1.045.1.046.1.046.1.047.1.047.1.048.094.047.1.049.094.048.1.049.094.05.093.049.094.05.094.051.093.051.093.051.093.052.092.052.093.052.092.053.092.053.091.053.092.054.091.054.091.055.091.055.091.055.09.056.09.056.09.056.09.057.089.057.089.058.089.058.089.058.088.058.088.059.088.06.088.059.087.06.088.06.086.061.087.061.087.062.086.061.086.062.085.063.086.063.085.063.084.063.085.064.084.064.084.064.084.065.083.065.083.066.083.066.083.066.082.066.082.067.081.067.082.068.081.068.08.068.081.068.08.069.08.069.079.07.08.07.078.07.079.07.078.071.078.071.078.071.077.072.077.072.077.072.076.073.076.073.076.073.075.074.075.074.075.074.074.074.074.075.074.075.073.076.073.076.072.076.073.076.072.077.071.077.071.077.071.078.07.078.07.078.07.078.069.079.069.079.069.079.068.08.068.08.067.08.068.081.066.081.067.081.065.081.066.082.065.082.065.082.064.082.064.083.064.083.063.084.063.083.062.084.062.084.061.085.062.085.06.085.06.085.06.086.06.086.059.086.058.086.059.087.057.087.058.087.056.088.057.087.056.088.055.089.056.088.054.089.054.089.054.089.054.09.052.09.053.09.052.09.051.091.051.091.051.091.05.091.05.092.049.092.049.092.048.092.048.093.047.093.047.093.046.093.046.094.045.094.042.086.04.087.041.087.039.088.04.087.039.088.038.089.038.088.038.09.037.089.037.089.036.09.036.09.035.091.035.09.035.091.034.091.033.092.034.091.033.092.032.092.032.093.032.092.031.092.031.094.03.093.03.093.029.094.03.094.028.094.029.094.028.094.027.1.028.094.026.1.027.1.026.1.026.1.025.1.025.1.024.1.025.1.024.1.023.1.023.1.023.1.022.1.022.1.022.1.021.1.021.1.021.1.02.1.02.1.02.1.019.1.019.1.019.1.018.1.018.1.018.1.017.1.017.1.017.1.016.1.016.1.016.1.015.1.015.1.015.1.015.1.014.1.014.1.013.1.014.1.013.1.012.1.013.1.012.1.011.1.012.1.011.1.011.1.011.1.01.1.01.1.01.1.01.1.009.1.009.1.009.1.008.1.009.1.008.1.007.1.008.1.007.1.007.1.007.1.006.1.006.1.006.1.006.1.006.1.005.1.005.1,0,.1.005.1,0,.1,0,.1,0,.1,0,.1,0,.1,0,.1,0,.094,0,.1,0,.094,0,.094,0,.094,0,.093V58.4l0,.094v.949l0,.131,0,.129,0,.129,0,.128,0,.127,0,.127-.005.126-.006.126-.006.124-.006.124-.007.124-.007.122-.008.122-.009.122-.008.12-.01.121-.01.119-.01.119-.011.118-.011.118-.012.117-.012.117-.012.116-.013.115-.014.115-.014.114-.014.114-.015.113-.015.113-.016.112-.016.112-.017.111-.017.11-.017.111-.018.109-.018.11-.019.108-.019.108-.019.108-.02.108-.02.106-.021.107-.021.106-.021.106-.021.105-.022.105-.023.1-.023.1-.023.1-.023.1-.024.1-.024.1-.024.1-.025.1-.025.1-.026.1-.026.1-.026.1-.026.1-.027.1-.027.1-.027.1-.027.1-.028.1-.028.1-.029.1-.028.1-.029.1-.03.1-.029.1-.03.1-.03.1-.03.1-.03.1-.031.1-.031.1-.031.1-.032.1-.031.1-.032.1-.032.1-.032.1-.033.1-.032.1-.033.1-.033.1-.034.1-.033.1-.034.1-.067.189-.069.19-.069.189-.069.19-.071.189-.07.19-.072.189-.071.19-.073.191-.072.191-.147.383-.147.385-.149.389-.075.2-.075.2-.075.2-.076.2-.075.2-.076.2-.075.2-.076.2-.076.205-.075.207-.076.209-.075.211-.038.106-.038.106-.037.106-.038.108-.038.108-.037.108-.038.109-.037.109-.038.11-.037.11-.037.111-.038.111-.037.112-.037.113-.037.113-.037.113-.037.114-.037.115-.036.116-.037.116-.037.117-.036.117-.036.118-.037.119-.036.119-.036.12-.036.121-.036.121-.036.122-.035.123-.036.123-.035.125-.035.125-.035.125-.035.127-.035.127-.035.128-.034.129-.035.129-.034.131-.034.131-.034.132-.034.133-.033.134-.034.134L54.148,80l-.033.136-.033.137-.033.138-.032.139-.033.14-.032.141-.032.142-.031.142-.032.144-.031.144-.031.146-.031.146-.031.147-.03.149-.031.149-.03.151-.029.151-.03.152-.029.154-.029.154-.029.156-.029.157-.028.157-.028.159-.028.16-.027.161-.028.162-.026.163-.027.164-.027.165-.026.167-.026.168-.025.168-.025.17-.025.171-.025.173-.024.173-.024.175-.024.176L53,86.222l-.023.178-.023.18-.023.181-.022.182-.021.183-.022.185-.021.186-.021.187-.02.189-.02.189-.02.191-.019.193-.019.194-.019.195-.018.2-.018.2-.017.2-.017.2-.017.2-.016.2-.016.205-.015.208-.006.07-.006.071-.006.072-.007.071-.007.072-.007.071-.008.072-.008.071-.009.072-.009.071-.009.071-.01.072-.01.071-.01.071-.011.071-.011.071-.011.071-.012.071-.012.071-.012.071-.013.07-.013.071-.014.071-.013.07-.014.071-.014.07-.015.07-.015.071-.015.069-.016.07-.016.071-.016.069-.016.07-.017.07-.016.069-.018.07-.017.069-.018.069-.018.07-.018.069-.019.069-.018.069-.02.068-.019.069-.019.068-.02.069-.02.068-.02.069-.021.068-.02.068-.021.067-.021.068-.022.068-.021.067-.022.068-.022.067-.022.067-.023.067-.022.067-.023.066-.023.067-.023.066-.023.066-.024.066-.024.067-.023.065-.024.066-.025.065-.024.066-.025.065-.024.065-.025.065-.025.065-.025.064-.026.064-.025.065-.026.064-.025.064-.026.063-.026.064-.053.126-.052.126-.054.125-.053.124-.055.124-.054.122L50.8,96.8l-.055.121-.056.121-.055.119-.057.118-.056.118-.056.117-.057.116-.057.115-.057.113-.057.113-.057.112-.057.111-.057.11-.058.109-.057.108-.057.107-.057.106-.057.105-.057.1-.057.1-.057.1-.056.1-.057.1-.055.1-.056.1-.056.1-.055.094-.055.093-.054.091L49.11,100l-.054.089-.053.087-.053.087-.052.085-.052.083-.051.083-.051.08-.05.08-.049.078-.049.076-.048.075-.048.074-.046.072-.047.07-.045.069-.044.068-.044.066-.043.064-.042.063-.081.12-.078.114-.074.107-.07.1-.065.093-.061.086-.056.078-.051.071-.047.064-.041.056-.035.048-.03.04-.041.055-.011.014-.027.037-.033.043-.032.043-.033.043-.032.043-.033.043-.033.042-.034.042-.033.042-.033.042-.033.042-.034.042-.034.041-.034.041-.034.041-.034.041-.034.041-.034.04-.035.041-.035.04-.034.04-.035.04-.035.039-.035.04-.036.039-.035.039-.035.039-.036.039-.035.039-.036.039-.036.038-.036.038-.036.038-.036.038-.037.038-.037.038-.072.074-.074.074-.074.073-.075.072-.074.072-.076.072-.075.07-.076.07-.077.07-.077.069-.077.068-.077.067-.078.067-.079.066-.078.066-.079.065-.079.064-.08.064-.08.063-.08.063-.081.061-.08.062-.082.06-.081.061-.082.059-.082.059-.082.058-.082.058-.083.057-.083.057-.084.056-.083.056-.084.054-.084.055-.084.053-.085.054-.084.052-.085.052-.085.052-.086.051-.085.05-.086.05-.085.05-.086.048-.087.049-.086.048-.087.047-.086.047-.087.046-.087.045-.087.045-.087.045-.088.044-.087.044-.088.043-.088.043-.087.042-.088.041-.088.042-.088.04-.089.04-.088.04-.088.039-.089.039-.088.038-.089.038-.088.037-.089.037-.088.037-.089.036-.089.035-.089.035-.088.035-.089.034-.089.034-.089.033-.089.033-.088.032-.089.032-.089.031-.089.032-.088.03-.089.03-.089.03-.088.03-.089.029-.089.028-.088.029-.088.027-.089.028-.088.027-.088.026-.088.027-.088.026-.088.025-.088.025-.088.025-.087.024-.088.024-.087.024-.088.023-.087.023-.087.022-.087.022-.086.022-.087.021-.086.021-.087.021-.086.021-.086.02-.085.019-.086.02-.085.019-.086.018-.085.019-.085.018-.084.017-.085.018-.084.017-.084.017-.084.016-.083.016-.083.016-.083.016-.083.015-.083.015-.082.014-.082.015-.082.014-.081.014-.082.013-.081.013-.08.013-.081.013-.08.012-.08.012-.079.012-.079.012-.079.011-.079.011-.078.011-.078.01-.077.011-.077.01-.077.009-.077.01-.076.009-.076.009-.075.009-.075.009-.075.008-.075.008-.147.016-.145.014-.145.014-.142.013-.141.012-.139.012-.138.01-.135.01-.134.009-.132.009-.129.008-.128.007-.126.006-.124.006-.122,0-.119,0-.117,0-.115,0-.113,0-.111,0-.108,0-.106,0H30l-.085,0-.083,0-.08,0-.077,0-.075,0-.071,0-.069,0-.066,0-.063,0-.06,0-.057,0-.054,0-.052,0-.048,0-.125-.01-.125-.011-.124-.011-.124-.012-.124-.012-.124-.013-.124-.013-.123-.013-.123-.014-.123-.014-.123-.015-.123-.015-.122-.016-.123-.016-.122-.016-.122-.017-.122-.017-.121-.017-.121-.018-.122-.019-.12-.018-.121-.02-.121-.019-.12-.02-.12-.02-.12-.021-.12-.021-.119-.022-.119-.022-.119-.022-.119-.022-.119-.023-.118-.024-.118-.024-.118-.024-.118-.024-.117-.025-.117-.026-.117-.025-.117-.026-.116-.027-.116-.026-.116-.027-.116-.028-.115-.028-.116-.028-.115-.028-.114-.029-.115-.03-.114-.029-.114-.03-.113-.03-.114-.031-.113-.031-.113-.031-.112-.032-.113-.032-.112-.032-.111-.033-.112-.033-.111-.033-.111-.034-.111-.034-.11-.034-.11-.035-.11-.035-.109-.035-.11-.036-.109-.036-.108-.036-.108-.037-.109-.037-.107-.037-.108-.037-.107-.038-.107-.038-.106-.039-.106-.038-.106-.039-.106-.04-.1-.039-.1-.04-.1-.041-.1-.04-.1-.041-.1-.041-.1-.041-.1-.042-.1-.042-.1-.042-.1-.043-.1-.043-.1-.043-.1-.043-.1-.044-.1-.044-.1-.044-.1-.045-.1-.044-.1-.045-.1-.046-.1-.045-.1-.046-.1-.046-.1-.047-.1-.046-.1-.047-.1-.047-.1-.048-.095-.047-.095-.048-.095-.048-.094-.049-.094-.048-.093-.049-.093-.05-.093-.049-.092-.05-.092-.049-.092-.051-.091-.05-.09-.051-.091-.05-.09-.051-.089-.052-.089-.051-.089-.052-.088-.052-.088-.052-.088-.053-.087-.052-.087-.053-.086-.053-.086-.053-.085-.054-.086-.054-.084-.054-.084-.054-.084-.054-.084-.055L14,104.56l-.083-.055-.082-.055-.082-.055-.081-.056-.081-.056-.08-.056-.08-.056-.079-.057-.08-.056L13.191,104l-.078-.057-.078-.057-.077-.058-.077-.057-.076-.058-.076-.058-.076-.058-.075-.058-.074-.059-.074-.059-.074-.059-.073-.059-.073-.059-.072-.059-.072-.06-.071-.06-.071-.06-.07-.06-.07-.06-.069-.061-.069-.06-.068-.061-.068-.061-.067-.061-.067-.062-.067-.061-.066-.062-.065-.061-.065-.062-.064-.063-.064-.062-.063-.062-.063-.063-.063-.063-.062-.063-.061-.063-.061-.063-.06-.063-.06-.064-.059-.063-.059-.064-.058-.064-.058-.064-.057-.065-.057-.064-.056-.064-.055-.065-.055-.065L9.923,101l-.054-.065-.053-.065-.053-.066-.052-.065-.052-.066-.051-.066-.051-.066-.05-.066-.049-.066-.049-.066-.049-.067-.048-.066-.047-.067-.047-.067-.046-.067-.045-.067-.045-.067-.044-.067-.044-.068-.043-.067-.043-.068-.042-.068-.041-.068L8.784,99.4l-.04-.068-.04-.069L8.665,99.2l-.038-.069-.038-.069-.037-.068-.036-.069-.036-.069-.035-.07-.035-.069-.034-.069-.033-.069-.033-.07-.032-.07-.031-.07L8.216,98.3l-.03-.07-.029-.071-.029-.07-.028-.07-.027-.071-.027-.07-.026-.071-.026-.071-.024-.07-.024-.071-.024-.071L7.9,97.451l-.022-.072-.021-.07-.021-.072-.019-.07-.042-.153-.04-.152L7.7,96.711l-.038-.15-.038-.15L7.6,96.336l-.018-.075-.018-.075-.018-.074-.018-.075-.017-.075L7.5,95.888l-.017-.074-.017-.074-.016-.075-.017-.074-.016-.074L7.4,95.443l-.015-.074L7.366,95.3l-.015-.074-.015-.074-.015-.073L7.307,95l-.015-.073-.014-.074-.014-.073-.014-.073-.013-.074-.013-.073-.013-.073L7.2,94.415l-.013-.073-.012-.073L7.16,94.2l-.012-.073-.011-.073-.012-.073L7.114,93.9,7.1,93.832l-.011-.073-.011-.073-.01-.072-.011-.073-.01-.073L7.04,93.4l-.009-.073-.01-.072-.009-.073L7,93.105,7,93.033l-.009-.072-.008-.073-.008-.072-.008-.072-.008-.073L6.947,92.6l-.008-.073-.007-.072-.006-.073-.007-.072-.006-.072-.007-.073L6.9,92.092,6.9,92.019l-.006-.072-.005-.072L6.879,91.8l-.005-.072,0-.072-.005-.073,0-.073,0-.072,0-.073,0-.072,0-.073,0-.072,0-.073,0-.072,0-.073,0-.073,0-.073,0-.072v-.073l0-.073v-.951l0-.073,0-.074,0-.073,0-.074,0-.074,0-.074,0-.074,0-.073,0-.075,0-.074,0-.074,0-.074.005-.074,0-.075.005-.074.005-.075.005-.075.005-.074.006-.075.005-.075.006-.075.007-.075.006-.075.006-.076.007-.075.007-.076.008-.076.007-.075.008-.076.008-.076L6.98,87.3l.008-.076L7,87.151l.009-.077L7.014,87l.009-.077.01-.077.009-.077.01-.076.01-.077.01-.078.011-.077.01-.078L7.1,86.3l.011-.078.011-.078.012-.078.011-.078.012-.079.025-.157.025-.157.026-.158.027-.159.028-.16.028-.16.029-.161.031-.161.031-.162.032-.163.032-.164.034-.164.034-.165.035-.166.036-.167.037-.167.038-.168.038-.169.039-.17.041-.171.04-.172.042-.172.043-.173.043-.175.044-.175.045-.176.046-.178.047-.178.047-.179.048-.18.049-.181.05-.182.051-.184.051-.184.053-.186.053-.186.053-.188.055-.188.056-.19.056-.192.057-.192.058-.193.059-.195.059-.2.061-.2.061-.2.062-.2.062-.2.064-.2.064-.2.065-.206.066-.2.014-.045.013-.043.013-.043.013-.044.012-.044.012-.044.012-.045.012-.045.011-.046.011-.045.011-.047.011-.046.01-.047.01-.047.01-.048.01-.048.009-.048.009-.049.009-.048.008-.05.009-.049.008-.05.007-.05.008-.051.007-.05.007-.051.007-.052.007-.051.006-.052.006-.053.006-.052L9.82,75.1l.006-.053.005-.054,0-.054.005-.053,0-.055,0-.054,0-.055,0-.055,0-.055,0-.056,0-.056,0-.056,0-.057,0-.056,0-.057,0-.058v-.056l0-.058v-.769l0-.061,0-.061,0-.061,0-.061,0-.061,0-.062,0-.061-.006-.125-.006-.124-.007-.126-.008-.126-.009-.127-.009-.127-.01-.128L9.8,71.9l-.011-.129-.012-.13-.012-.13-.013-.131-.013-.131-.013-.131-.015-.132L9.7,70.849l-.015-.133-.016-.133-.016-.133-.016-.134-.017-.134L9.6,70.048l-.017-.135-.018-.135-.018-.135-.019-.135-.018-.136-.019-.135L9.471,69.1l-.02-.136-.019-.136-.04-.272-.04-.273-.041-.273-.041-.273-.041-.272-.082-.545-.041-.271-.04-.27-.04-.27-.039-.269-.019-.134-.019-.134L8.93,65.44l-.018-.133-.018-.133-.018-.132-.017-.132-.017-.132-.017-.131-.017-.131-.015-.13-.016-.13-.015-.13L8.747,64l-.014-.128-.013-.128-.013-.128-.013-.126-.012-.127-.011-.126-.011-.125-.01-.125-.01-.124-.008-.124-.009-.123-.007-.122-.007-.122-.006-.12,0-.061,0-.06,0-.06,0-.059,0-.06,0-.06v-.642l0-.057v-.114l0-.057,0-.056,0-.057,0-.056.006-.12.007-.119.006-.12.007-.119.008-.12.008-.12.008-.12.008-.12.009-.121.009-.12.01-.12.01-.121.01-.12.011-.121.011-.12.012-.121.012-.121.012-.121.012-.121.013-.121.014-.121.014-.121.014-.121.014-.121.015-.121.015-.121L8.89,57.6l.016-.121.017-.121.017-.121.017-.122.017-.121.019-.121.018-.122.019-.121.019-.121.02-.122.02-.121.02-.122.021-.121.021-.121.022-.122.022-.121.022-.121.023-.122.024-.121.023-.121.024-.121.025-.122.025-.121.025-.121.026-.121.026-.121.027-.121.027-.121.028-.12.028-.121.028-.121.029-.121.029-.12.03-.121.03-.12.03-.12.031-.121L9.786,53l.032-.12.032-.12.033-.12.033-.12L9.95,52.4l.034-.12.034-.119.035-.12.036-.119.035-.119.037-.119.036-.119.037-.119.038-.119.038-.118.039-.119.039-.118.039-.118.04-.118.041-.118.04-.118.042-.117.041-.118.043-.117.042-.117.044-.117.043-.117.044-.116.045-.117.045-.116.045-.116.047-.116.046-.116.047-.115.048-.115.047-.115.049-.115.049-.115.049-.114.05-.115.051-.114.051-.114.051-.113.052-.114.052-.113.053-.113.053-.112.054-.113.055-.112.055-.112L12,47.051l.056-.111.056-.112.057-.111.058-.11.058-.111.058-.11.059-.11.059-.11.06-.109.061-.109.061-.109.062-.109.062-.108.062-.108.063-.108.064-.107.064-.107.065-.107.065-.106.066-.107.066-.1.067-.106.067-.1.068-.1.069-.1.069-.1.069-.1.07-.1.071-.1.071-.1.072-.1.072-.1.073-.1.073-.1.074-.1.075-.1.075-.1.075-.1.076-.1.077-.1.077-.1.078-.1.079-.1.078-.1.08-.1.08-.1.081-.1.081-.1.082-.1.082-.1.083-.1.083-.1.084-.094.085-.093.085-.093.086-.093.086-.092.087-.092.088-.091.088-.091.089-.091.089-.09.09-.089.09-.089.091-.089.092-.088.046-.044.046-.044.047-.043.046-.044.047-.043.046-.044.047-.043.047-.043.048-.043.047-.043.048-.042.047-.043.048-.042.048-.042.048-.043.048-.042.049-.042.048-.042.049-.041.049-.042.049-.041.049-.041.049-.042.05-.041.049-.041.05-.04.05-.041.05-.04.05-.041.051-.04.05-.04.051-.04.051-.04.05-.04.052-.039.051-.04.051-.039.052-.039.052-.039.051-.039.052-.039.053-.039.052-.038L19,38.572l.052-.039.053-.038.053-.038.053-.038.053-.037.054-.038.053-.037.054-.037.054-.037.054-.037.054-.037.054-.037.055-.036.054-.037.055-.036.055-.036.055-.036.055-.036.056-.035.055-.036.056-.035.056-.035.056-.035.056-.035.056-.035.057-.035.056-.034.057-.034.057-.035.057-.034.058-.034.057-.033.058-.034.057-.033.058-.033.058-.033.058-.033.059-.033.058-.033.059-.032.059-.033.058-.032.06-.032.059-.032L21.522,37l.06-.032.06-.031.06-.031.06-.031.06-.031.06-.031.061-.03.06-.031.061-.03.061-.03.061-.03.062-.03.061-.029.062-.03.061-.029.062-.029.063-.029.062-.029.062-.028.063-.029.063-.028.062-.028.063-.028L23,36.284l.064-.027.063-.028.064-.027.064-.027.064-.027.064-.027.064-.026.065-.027.065-.026.064-.026.065-.026.065-.026.066-.025.065-.026.065-.025.066-.025.066-.025.066-.024.066-.025.067-.024.066-.024.067-.024.067-.024.067-.023.067-.024.067-.023.068-.023.067-.023.068-.023.068-.022.068-.023.069-.022.068-.022.069-.022.068-.021.154-.048.153-.048.154-.047.154-.047.154-.047.154-.047.154-.046.154-.046L26.692,35l.155-.046L27,34.909l.155-.044.155-.045.155-.044.155-.043.155-.043.156-.043.156-.042.156-.042.156-.041.156-.04.156-.041.157-.039.157-.039.157-.038.157-.038.157-.037.158-.037.157-.036.158-.035.08-.017.079-.017.079-.017.079-.017.079-.016.08-.017.079-.016.08-.016.079-.016.08-.015.08-.016.079-.015.08-.015.08-.015.08-.015.08-.014.08-.014.08-.014.08-.014.08-.014.081-.013.08-.013.08-.013.081-.013.08-.012.081-.012.081-.012.08-.012.081-.012.081-.011.081-.011.081-.011.081-.01.081-.01.082-.011.081-.009.081-.01.082-.009.081-.009.082-.009.081-.008.082-.009.082-.008.082-.007.082-.008.082-.007.082-.007.082-.006.082-.006L34,33.539l.082-.006.083-.006.082-.005.083-.005.082,0,.083,0,.083,0,.083,0,.083,0,.083,0,.083,0,.084,0,.083,0h.083l.084,0h.46Zm-.2,1.787H35.2l-.077,0-.076,0-.077,0-.076,0-.077,0-.076,0-.076,0-.077,0-.076,0-.076,0-.076.005-.076.005-.076.005-.076.005-.077.005-.076.006-.076.006-.075.007-.076.006-.076.007-.076.007-.076.008-.076.007-.076.008-.075.008-.076.009-.076.008-.075.009-.076.009-.076.009-.075.01-.076.01-.075.01-.076.01-.075.011-.076.011-.075.011-.076.011-.075.011-.076.012-.075.012-.075.012-.076.012-.075.013-.076.012-.075.013-.075.013-.075.014-.076.013-.075.014-.075.014-.076.014-.075.015-.075.014-.075.015-.075.015-.076.015-.075.016-.075.015-.075.016-.075.016-.075.016-.076.016-.074.016-.151.034-.15.034-.15.035-.151.035-.15.036-.15.037-.15.037-.15.038L29,36.212l-.15.039-.15.039-.15.04-.15.041-.151.041-.15.042-.15.042-.151.043-.15.043-.151.043-.15.044-.151.044-.15.045L26.9,36.8l-.151.046-.15.045-.151.046-.151.047-.151.046-.151.047-.151.047-.064.02-.063.02-.063.021-.064.02-.062.021-.063.02-.063.021-.062.021-.062.022-.062.021-.062.022-.062.022-.062.021-.061.023-.061.022-.061.022-.062.023-.06.022-.061.023-.06.023-.061.023-.06.024-.06.023-.06.024-.06.024-.059.024-.06.024-.059.024-.059.024L24,37.8l-.059.025-.059.025-.058.025-.058.025-.058.025-.058.026-.058.025L23.538,38l-.058.026-.057.026-.057.026-.058.027-.057.026-.056.027-.057.027-.057.027-.056.027-.056.027-.056.028-.056.027-.056.028-.056.028-.055.028-.055.028-.056.028-.055.029-.055.028-.054.029-.055.029-.054.029-.055.029-.054.029-.054.03-.054.029-.053.03-.054.03-.053.03-.053.03-.053.03-.053.031-.053.03-.053.031-.053.031-.052.031-.052.031-.052.031-.052.032-.052.031-.052.032-.051.032-.052.032-.051.032-.051.032-.051.032-.051.033-.05.032-.051.033-.05.033-.051.033-.05.033-.05.033-.049.034-.05.033-.05.034-.049.034-.049.034-.049.034-.049.034-.049.034-.049.035-.049.034-.048.035-.048.035-.048.035L20,40.051l-.047.035-.048.035-.048.036-.047.035-.047.036-.048.036-.047.036-.047.036-.046.036-.047.037-.046.036-.047.037-.046.036-.046.037-.046.037-.046.037-.046.037-.045.038-.045.037-.046.038-.045.037-.045.038-.045.038-.044.038-.045.038-.044.039-.045.038-.044.039-.044.038-.044.039-.044.039-.044.039-.043.039-.043.039-.044.039-.043.04-.043.039-.043.04-.042.04-.043.04-.043.04-.042.04-.042.04-.084.081-.084.081-.083.082L17.737,42l-.082.083-.081.083-.081.083-.081.084-.08.085-.079.084-.079.086-.078.085-.078.086-.077.087-.077.087-.076.087-.076.088-.076.088-.074.088-.075.089-.074.09-.073.089-.073.09-.072.091-.072.091-.071.091-.071.091-.07.093-.07.092-.069.093-.069.093-.068.093-.068.094-.068.094-.067.1-.066.1-.066.1-.065.1-.065.1-.065.1-.064.1-.063.1-.063.1-.063.1-.062.1-.062.1-.061.1-.06.1-.06.1-.06.1-.059.1-.059.1-.058.1-.058.1-.058.1-.056.1-.057.1-.056.1-.055.1-.055.1-.055.1-.054.1-.054.1-.053.1-.053.1-.052.1-.052.1-.051.1-.051.1-.05.1-.05.106-.05.1-.049.106-.049.107-.048.106L13.1,48.9l-.047.107L13,49.119l-.046.108-.046.108-.046.107-.045.109-.044.108-.045.109-.043.108-.044.109-.042.11-.043.109-.042.11-.041.109-.042.11-.04.111-.041.11-.039.111-.04.11-.039.111L12.2,51.2l-.038.112-.038.111-.037.112-.037.111-.037.112-.036.112-.035.112-.035.113-.035.112-.034.113-.034.113-.034.113-.033.113-.032.113-.033.113L11.638,53l-.032.113-.031.114-.03.114-.031.114-.029.114-.03.114-.029.114-.028.114-.028.115-.028.114-.027.115-.027.114-.027.115-.026.115-.026.115-.025.115-.025.115-.024.115-.025.115-.023.115-.024.115-.023.116-.022.115L11,55.747l-.022.115-.022.116-.021.115-.02.116-.021.115-.019.116-.02.116-.019.115-.019.116-.018.116-.018.116-.018.115-.017.116-.017.116-.016.116-.016.115-.016.116-.015.116-.015.115-.015.116-.014.116-.014.115-.013.116-.014.116-.012.115-.013.116-.012.115-.011.115-.012.116-.011.115-.01.115-.011.116-.01.115-.009.115-.009.115-.009.115-.009.115-.008.115-.008.114-.007.115-.007.114-.007.115-.006.114-.006.115-.006.113,0,.048,0,.048,0,.048,0,.049v.713l0,.054,0,.053,0,.054,0,.054,0,.055,0,.053.006.112.006.111.007.112.007.114.008.114.009.116.01.116.01.117.01.118.012.12.012.12.012.121.013.121.013.123.014.123.015.124.014.125.016.125.016.126.016.127.016.128.017.128.018.129.017.129.018.13.018.13.019.131.019.132.038.264.039.267.04.268.041.269L11,67.2l.041.273.041.274.041.276.041.275.04.276.02.139.02.138.019.139.02.138.019.139.018.138.019.139.018.138.018.139.018.139.017.138.017.138.017.138.016.138.015.139.016.137.014.138.015.137.014.138.013.137.013.137.012.136.011.137.011.136.011.136.01.135.009.135.008.135.008.135.007.134.006.133,0,.068,0,.066,0,.067,0,.066,0,.067,0,.066,0,.066v.915l0,.064,0,.064,0,.064,0,.064,0,.065,0,.063,0,.064,0,.063,0,.063,0,.064,0,.063-.005.063-.005.062-.006.063-.005.062-.006.062-.006.063-.007.062-.007.062-.007.061-.007.061-.008.062-.008.061-.008.061-.009.061-.009.061-.009.06-.01.061-.01.06-.011.06-.011.06-.011.059-.011.06-.012.059-.012.059-.013.059-.013.059-.013.058-.014.059-.014.058-.014.058-.015.058-.016.057L11.3,76.9l-.016.057-.017.057-.017.057-.017.056-.017.054-.066.206-.064.2-.064.2-.062.2-.062.2-.061.2-.06.195-.06.194-.058.193-.058.191-.057.19-.056.188-.055.188-.054.186-.054.184-.052.184-.052.182-.051.182-.051.18L10.074,81l-.049.178-.047.176-.047.176-.046.174-.046.173-.044.172-.044.171-.043.17-.042.169-.041.168-.04.167-.04.165-.038.165-.038.164-.037.163-.037.162-.035.161-.034.16-.034.159-.033.158-.032.158-.032.156-.03.156-.03.155-.029.154-.028.153-.027.153-.026.152L9,85.735l-.024.15-.024.15-.024.149-.011.074-.011.074-.011.074-.01.073-.011.074-.01.073-.01.073-.01.073-.009.073-.01.073-.009.073-.009.072-.009.072-.008.072-.009.072-.008.072-.008.072-.008.071-.007.072-.008.071-.007.071-.007.071-.007.071-.006.071-.007.071-.006.07-.006.071-.006.07-.005.07-.006.07-.005.07-.005.07,0,.069-.005.07,0,.069-.005.07,0,.069,0,.07,0,.069,0,.069,0,.069,0,.069,0,.068,0,.069,0,.069,0,.068,0,.069,0,.068v.068l0,.068v.882l0,.067v.068l0,.067,0,.067,0,.068,0,.067,0,.067,0,.067,0,.067,0,.068,0,.067,0,.067,0,.067,0,.067,0,.067.005.068,0,.067.005.067.005.067.006.067.005.067.006.067.006.067.006.067.006.067.007.067.006.067.007.068.007.067.008.067.007.067.008.067.008.068.008.067.008.067.009.068.008.067.009.067.01.068.009.067.009.068.01.068.01.067.01.068.011.068.01.068.011.067.011.068.011.068.012.068.011.068.012.069.012.068.012.068L9,94.313l.012.068.013.069.013.068.013.069.014.069.013.069.014.069.014.069.015.069L9.13,95l.015.07.015.069.015.07.015.069.016.07.015.07.016.07.017.07.016.07.016.07.017.071.017.07.017.071.018.07.035.143.037.142.037.143.038.144.038.143.016.056.016.055.016.055.017.055.018.055.018.056.019.055.019.056.02.055.02.056.021.056.022.056.023.056.022.055.024.056.024.057.025.056L9.9,97.7l.026.056.026.057.027.056.028.057.028.056.029.057.029.056.03.057.031.057.031.056.032.057.032.057.033.057.034.057.034.057.034.057.035.056.036.057.037.057.037.057.037.058.038.057.039.056.039.058.04.057.04.057.041.057.042.057.042.057.042.057.044.057.043.057.045.057.045.057.045.056.046.057.047.057.047.057.047.057.048.057.049.056.049.057.05.057.051.056.051.057.051.056.052.057.052.056.053.056.054.057.054.056.055.056.055.056.055.056.057.056.056.056.058.056.057.055.059.056.058.056.06.055.059.055.061.056.061.055.061.055.062.055.062.055.063.055.063.054.064.055.064.054.065.055.065.054.066.054.066.054.067.054.067.054.068.053.068.054.068.053.07.054.069.053.07.053.071.052.071.053.071.053.072.052.072.053.073.052.073.052.074.052.074.051.075.052.075.051.075.052.076.051.077.05.076.051.078.051.077.05.079.051.078.05.079.05.079.049.08.05.081.049.08.049.081.049.082.049.082.049.082.048.083.049.083.048.083.047.084.048.085.048.085.047.085.047.085.047.086.046.087.047.086.046.087.046.088.046.088.045.088.046.089.045.089.045.089.045.09.044.09.044.091.044.091.044.091.044.091.043.092.043.093.043.092.043.093.042.094.042.094.042.094.042.094.041.095.041.095.041.1.041.095.04.1.04.1.04.1.04.1.039.1.039.1.039.1.039.1.038.1.038.1.038.1.037.1.037.1.037.1.037.1.036.1.036.1.036.1.035.1.036.1.034.1.035.1.034.1.034.1.034.1.033.1.034.1.032.1.033.1.032.1.032.1.032.106.031.106.031.106.03.106.031.107.03.107.029.107.03.108.029.107.029.108.028.109.028.108.028.109.027.109.027.109.027.11.026.109.026.11.026.111.025.11.026.111.024.111.025.111.023.111.024.112.023.112.023.112.023.112.022.113.022.112.021.113.022.113.02.114.021.113.02.114.019.114.02.114.019.115.018.114.018.115.018.115.018.115.017.116.016.115.017.116.015.116.016.116.015.116.015.117.014.116.014.117.014.117.013.117.012.118.013.117.012.118.011.118.011.118.011.118.01.118.01.038,0,.041,0,.044,0,.048,0,.052,0,.055,0,.057,0,.061,0,.064,0,.067,0,.07,0,.073,0,.075,0h.8l.1,0,.1,0,.106,0,.107,0,.11,0,.113,0,.114,0,.116-.006.118-.006.12-.006.122-.008.124-.007.126-.009.128-.009.129-.01.131-.011.133-.012.134-.012.136-.013.137-.014.139-.014.07-.008.07-.008.071-.008.071-.008.071-.009.072-.008.071-.009.073-.01.072-.009.073-.01.074-.01.073-.01.074-.01.074-.011.074-.011.075-.011.075-.011.075-.012.076-.012.075-.012.076-.012.077-.013.076-.013.077-.013.077-.013.077-.014.077-.014.078-.014.078-.015.078-.015.078-.015.078-.015.079-.016.079-.016.079-.016.079-.017.079-.016.079-.018.08-.017.08-.018.08-.018.08-.018.08-.019.08-.019.081-.019.08-.02.081-.02.08-.02.081-.021.081-.021.081-.021.081-.021.082-.022.081-.023.081-.022.082-.023.081-.023.082-.024.081-.024.082-.024.081-.025.082-.025.082-.025.082-.026.081-.026.082-.026.082-.027.082-.027.081-.028.082-.028.082-.028.082-.029.081-.029.082-.029.082-.03.081-.03.082-.03.081-.031.082-.032.081-.031.082-.033.081-.032.081-.033.081-.033.081-.034.081-.034.081-.034.08-.035.081-.036.08-.035.081-.036.08-.037.08-.037.08-.037.08-.038.08-.038.079-.039.08-.039.079-.04.079-.04.079-.04.078-.041.079-.041.078-.042.078-.042.079-.042.077-.043.078-.044.077-.044.077-.044.077-.045.077-.045.076-.046.077-.046.076-.047.075-.047.076-.047.075-.049.075-.048.075-.049.075-.049.074-.05.074-.051.073-.051.074-.051.073-.052.073-.052.072-.053.072-.053.072-.054.072-.055.071-.054.071-.056.071-.055.07-.057.07-.057.07-.057.069-.058.069-.058.068-.059.068-.059.068-.06.068-.06.067-.061.067-.062.066-.062.066-.062.066-.063.065-.064.065-.064.064-.065.065-.066.031-.032.032-.033.032-.033.031-.033.032-.033.031-.034.031-.034.031-.033.031-.034.031-.034.031-.035.031-.034.03-.034.031-.035.03-.035.031-.035.03-.035.03-.035.03-.035.03-.036.029-.035.03-.036.03-.036.029-.036.029-.036.029-.036.029-.037.029-.037.029-.036.029-.037.028-.037.029-.037.028-.038.029-.038.028-.037.032-.044.016-.02.035-.047.025-.034.032-.043.036-.05.042-.058.048-.065.052-.073.056-.08.061-.087.066-.093.069-.1.073-.107.077-.113.039-.059.041-.061.041-.062.042-.063.043-.066.043-.066.045-.068.045-.07.045-.071.047-.073.046-.074.048-.075.048-.076.048-.078.049-.079.05-.081.05-.082.05-.083.051-.084L47.629,99l.052-.087.052-.088.052-.089.053-.09.052-.092.054-.092L48,98.364l.053-.1.054-.1.053-.1.054-.1.054-.1.054-.1.054-.1.054-.1.054-.1.054-.1.054-.105.054-.106.054-.106.053-.107.054-.108.053-.109.053-.11.053-.11.053-.111.052-.112.052-.113.052-.113.051-.114.051-.115.05-.115.05-.116.05-.116.049-.117.049-.119.024-.058.024-.059.024-.06.024-.059.023-.059.024-.06.023-.06.023-.06.023-.06.023-.06.023-.06.022-.061.023-.06.022-.061.022-.06.022-.061.021-.061.022-.061.021-.061.021-.061L50,93.986l.021-.061.02-.062.021-.061.02-.062.02-.062.019-.061.02-.062.019-.062.019-.061.019-.062.019-.063.018-.061.018-.062.018-.063.018-.062L50.3,93l.018-.063.017-.062.016-.062.017-.063.016-.062.016-.062.016-.063.015-.062.015-.063.015-.063.015-.062.014-.063.015-.062.013-.063.014-.063L50.548,92l.013-.063.013-.063.012-.062.013-.063.011-.062.012-.063.011-.063.011-.062.011-.063.01-.062.01-.063.01-.062.009-.063.01-.062.008-.062L50.721,91l.008-.062.008-.062.007-.063.007-.062.007-.062.007-.062.006-.062.005-.062.006-.062.005-.062.005-.064.016-.208.016-.21.016-.207.017-.207.018-.205.018-.2.018-.2.018-.2.019-.2.02-.2.02-.2.02-.2.02-.194.021-.193.021-.192.022-.191.022-.189.022-.188.023-.187.023-.185.023-.184.024-.184.024-.181.024-.181.025-.179.025-.179.025-.177.026-.176.026-.175.026-.173.027-.173.027-.171.027-.17.027-.169.028-.168.028-.167.028-.166.029-.164.029-.164.029-.162.029-.162.03-.16.03-.16.03-.158.031-.157.031-.157.031-.155.031-.154.031-.153.032-.152.032-.152.032-.15.032-.149.033-.149.033-.147.033-.147.033-.145.033-.145L52.31,80l.034-.143.034-.142.034-.141.035-.14.034-.139.035-.139.035-.137.035-.137.035-.136.036-.135.035-.134.036-.133.036-.132.036-.132.036-.131.036-.13.037-.13.036-.128.037-.128.037-.127.037-.126.037-.126.037-.124.038-.125.037-.123.037-.122.038-.122.038-.122.037-.12.038-.12.038-.119.038-.119.038-.118.039-.117.038-.117.038-.116.038-.115.039-.115.038-.114.039-.113.038-.113.039-.113.038-.111.039-.112.038-.11.039-.11.039-.11.038-.109.039-.109L54.2,73.7l.078-.213.077-.212.077-.209.077-.208.077-.206.076-.2.077-.2.076-.2.076-.2.076-.2.075-.2.149-.389.148-.385.145-.381.072-.189.071-.188.071-.187.07-.187.07-.186.068-.185.068-.185.068-.185.066-.184.066-.184.032-.091.032-.092.032-.091.032-.092.032-.092.031-.091.031-.092.031-.092.031-.091.031-.092.03-.091.03-.092.029-.092.03-.092.029-.092.029-.092.029-.091.028-.093.028-.092.028-.092.028-.093.027-.092.027-.093.027-.092.027-.094.026-.093.026-.093.025-.094.026-.093.025-.094.025-.094.024-.1.024-.094.024-.1.023-.1.024-.1.022-.1.023-.1.022-.1.022-.1.022-.1.021-.1.021-.1.02-.1.02-.1.02-.1.02-.1.019-.1.019-.1.018-.1.018-.1.018-.1.017-.1.017-.1.016-.1.017-.1.015-.1.016-.1.015-.1.014-.1.015-.1.013-.1.014-.106.013-.107.013-.107.012-.108.012-.108.011-.108.011-.11.01-.11.01-.11.01-.111.009-.112.009-.112.008-.113.008-.114.007-.114.007-.115.007-.116.006-.116.005-.117.005-.118.005-.118,0-.119,0-.12,0-.121,0-.121,0-.122V58.431l0-.09,0-.089,0-.09,0-.09,0-.09,0-.091,0-.09,0-.091,0-.09,0-.091,0-.091,0-.091,0-.092,0-.091-.005-.091-.005-.092-.005-.092-.005-.092-.005-.092-.006-.092-.006-.092-.006-.093-.006-.092-.007-.092-.007-.093-.007-.092-.007-.093-.008-.093-.008-.092-.008-.093-.008-.093-.009-.093-.009-.093-.009-.093-.009-.093-.01-.093-.01-.093-.01-.093-.01-.093-.011-.093-.011-.093-.011-.093-.011-.093-.012-.093-.012-.093-.012-.093-.013-.093-.013-.093-.013-.093-.013-.093-.014-.092-.014-.093-.014-.093-.015-.092-.015-.093-.015-.092-.015-.092-.016-.093L57.381,53l-.016-.092-.017-.092-.017-.092-.017-.091-.017-.092-.018-.092-.018-.091-.019-.091-.018-.091-.019-.091-.02-.091-.019-.091-.02-.09-.02-.091-.021-.09-.021-.09-.021-.09-.022-.09-.021-.089L57,51.179l-.022-.089L56.952,51l-.023-.089-.024-.089-.023-.088-.025-.088-.024-.088-.025-.088-.025-.087-.025-.087-.026-.087-.026-.087-.027-.087-.027-.086-.027-.086L56.6,49.78l-.028-.086-.028-.085-.029-.085-.029-.084-.029-.085-.029-.083-.03-.084-.031-.084-.03-.083-.031-.082-.031-.083-.032-.082-.032-.082-.033-.081-.032-.081-.034-.081-.033-.081-.034-.08-.034-.079-.035-.08-.034-.079-.036-.078-.035-.079-.036-.078-.037-.077-.037-.077-.041-.086-.042-.085-.042-.085-.042-.085-.044-.084-.043-.085-.044-.084-.044-.084-.045-.084-.046-.083-.045-.084-.047-.083-.046-.083-.047-.083-.048-.082-.048-.083L55,46.236l-.049-.082-.049-.081-.05-.082-.05-.081-.05-.081-.051-.081-.051-.081-.052-.08-.052-.08-.053-.08-.053-.08-.053-.08-.054-.079-.054-.079-.054-.079-.055-.078-.056-.079-.055-.078L54,44.717l-.056-.077-.057-.078-.057-.077-.058-.077-.058-.077-.059-.076-.058-.076-.06-.076-.059-.076-.06-.075-.061-.076L53.3,43.8l-.062-.074-.061-.075-.062-.074-.062-.074-.063-.074-.063-.073-.063-.074L52.8,43.21l-.064-.072-.065-.073-.065-.072-.065-.072-.065-.072-.066-.071-.066-.071-.066-.071-.067-.071-.067-.07-.068-.07-.067-.07-.068-.069-.069-.07-.069-.069-.069-.068-.069-.069-.07-.068-.07-.068-.071-.068-.07-.067-.071-.067-.072-.067-.071-.066-.072-.066-.073-.066-.072-.066-.073-.065-.073-.065-.074-.065-.074-.064-.074-.065-.074-.064-.075-.063-.075-.063-.075-.063-.076-.063-.076-.062-.076-.063-.076-.061-.077-.062-.077-.061-.077-.061-.077-.06-.078-.061-.078-.06-.079-.059-.078-.06-.079-.059-.079-.058-.08-.059-.079-.058-.08-.057-.08-.058-.081-.057-.08-.057-.081-.056-.081-.057-.082-.055-.081-.056-.082-.055-.082-.055-.083-.054-.082-.055-.083-.053-.083-.054-.083-.053-.084-.053-.084-.053-.084-.052-.084-.052L47.4,38.7l-.085-.051-.085-.051-.085-.051-.085-.05-.085-.05-.086-.049-.086-.049-.086-.049-.086-.049-.087-.048-.086-.048-.087-.047-.087-.047-.087-.047-.088-.046-.087-.046-.088-.046-.088-.045-.089-.045-.088-.044-.088-.045-.089-.043-.089-.044-.089-.043-.089-.043-.09-.042-.089-.042-.09-.042-.09-.041-.09-.041-.09-.04-.09-.041L44.5,37.2l-.09-.04-.091-.039-.091-.039-.091-.038-.091-.038-.092-.037-.091-.037-.092-.037-.092-.037-.092-.036-.092-.035-.092-.035-.092-.035-.093-.035-.092-.034-.093-.034-.093-.033-.092-.033-.094-.032-.093-.032-.093-.032-.093-.031-.094-.031-.093-.031-.094-.03L42.1,36.3l-.094-.029-.094-.029-.094-.029-.094-.028-.094-.027-.094-.028-.1-.027-.094-.026-.1-.026-.094-.026-.1-.025-.1-.025-.1-.024-.1-.025-.1-.023-.1-.023-.1-.023-.1-.023-.1-.021-.1-.022-.1-.021-.1-.021-.1-.02-.1-.02-.1-.019-.1-.019-.1-.019-.1-.018-.1-.018-.1-.017-.1-.017-.1-.016-.1-.016-.1-.016-.1-.015-.1-.015-.1-.014-.1-.014-.1-.013-.1-.013-.1-.013-.1-.012-.1-.012-.1-.011-.1-.01-.1-.011-.1-.01-.1-.009-.1-.009-.1-.009-.1-.008-.1-.007-.1-.007-.1-.007-.1-.006-.1-.006-.1-.006-.1-.005-.1,0-.1,0-.1,0-.1,0-.1,0-.1,0H35.5Z" fill-rule="evenodd"/>
          <path id="Path_25" data-name="Path 25" d="M28.6,104.812c10.708.138,14.075-4.229,15.086-6.321,1.9-3.94,3.957-11.884,3.748-16.353a10.2,10.2,0,0,0-1.318-4.81C44.138,74.159,33.074,71.842,28.8,71.7a19.65,19.65,0,0,0-4.924.588c-5.581,1.223-12.113,26.25-2.766,30.563A22.355,22.355,0,0,0,28.6,104.812Z" fill="#b7f8ff" fill-rule="evenodd"/>
          <path id="Path_26" data-name="Path 26" d="M55.13,62.537a.738.738,0,1,0,.589.862A.738.738,0,0,0,55.13,62.537Z" fill="#b7f8ff" fill-rule="evenodd"/>
          <path id="Path_27" data-name="Path 27" d="M18.881,57.1a.738.738,0,1,0,.589.861A.738.738,0,0,0,18.881,57.1Z" fill="#b7f8ff" fill-rule="evenodd"/>
          <g id="Group_4" data-name="Group 4">
            <path id="Path_28" data-name="Path 28" d="M40.924,64.877c-.524.979-1.094,2.93-1.924,3.633-.4.34-1.061.19-1.49.093-2.464-.561-1.772-3.054-1.566-5.326" fill="#ededed" fill-rule="evenodd"/>
            <path id="Path_29" data-name="Path 29" d="M35.968,62.608l.038,0,.037.005.037.006.037.009.036.011.035.012.035.015.034.017.032.018.032.02.03.022.03.024.027.025.027.027.024.029.024.029.021.031.02.032.018.033.016.034.014.035.012.035.01.037.008.036.006.038,0,.037,0,.037V63.3l0,.038-.01.108-.011.111-.012.11-.012.109-.012.11L36.542,64l-.026.216-.025.215-.013.107-.012.105-.011.105-.012.1-.011.1-.01.1-.01.1-.009.1,0,.05,0,.049,0,.049,0,.049,0,.048,0,.048,0,.048,0,.048,0,.047,0,.047,0,.046v.4l0,.042,0,.042,0,.041,0,.041,0,.04,0,.04,0,.039.005.038,0,.038.005.038.005.037.006.036.006.036.006.035.007.034.007.034.007.034.008.033.009.032.008.031.01.032,0,.014.005.015,0,.015.005.015.005.015.006.015.005.014.005.014.005.014.006.014.005.013.006.014.006.013.005.014.006.013.006.013.006.013.006.012.007.013.006.012.007.013.006.012.007.012.007.012.006.011.007.012.007.012.007.011.007.011.008.012.007.01.008.012.008.011.007.01.008.011.008.01.008.011.008.01.008.011.009.009.008.011.009.01.009.01.009.009.009.01.009.01.009.009.01.01.01.009.009.01.01.009.011.009.01.009.01.01.011.009.011.009.011.008.011.009.012.009.011.009.012.009.012.008.012.009.013.008.012.009.013.008.014.009.013.008.013.008.014.008.014.009.015.008.015.008.014.008.016.008.015.007.016.008.016.008.016.007.016.008.017.007.017.008.018.007.017.007.018.007.019.007.018.007.019.007.019.007.02.007.02.006.02.007.02.006.021.007.021.006.022.006.022.006.022.006.022.006.023,0,.023.006.025.006.079.018.041.009.04.008.041.009L37.9,68l.04.008.041.007.041.007.018,0,.02,0,.02,0,.019,0,.019,0,.019,0,.019,0,.019,0,.018,0h.194l.013,0h.026l.011,0,.011,0,.011,0,.01,0,.01,0,.009,0,.008,0,.008,0,.007,0,.007,0,.005,0,.007,0,.005,0,0,0,0,0,.006,0h.006l0,0h0l0,0h0l.012-.011.012-.01.012-.011.011-.011.013-.012.013-.013.012-.013.013-.013.013-.014.013-.015.014-.015.013-.015.014-.016.014-.017.013-.017.014-.017.014-.019.014-.018.014-.019.015-.02.014-.019.014-.02.014-.021.015-.022L38.9,67.6l.015-.022.015-.022.014-.023.015-.023.014-.024.015-.024L39,67.438l.015-.024.015-.025.015-.026.014-.024.029-.053.03-.053.029-.055.029-.055.029-.056.029-.058.029-.058.029-.059.029-.06.028-.06.029-.062.028-.061.028-.062.029-.063.028-.064.028-.063.028-.064.027-.064.056-.129.054-.129.054-.129.054-.129.054-.128L39.9,65.5l.054-.125.026-.063.027-.061.026-.061.027-.06.027-.06.026-.06.027-.058.027-.058.027-.057.027-.057.027-.055.028-.055.027-.054.027-.05.018-.032.02-.032.022-.031.024-.029.025-.028.027-.026.028-.025.03-.023.031-.021.032-.02.033-.018.034-.016.035-.014.035-.012.036-.01.037-.009.037-.006.038,0,.037,0h.038l.037,0,.038,0,.037.007.036.008.036.011.036.013.034.014.034.017.033.018.031.021.031.022.029.023.028.026.026.026.025.029.023.029.022.031.019.032.018.033.016.034.014.035.013.035.01.037.008.036.006.037,0,.038V64.9l0,.037-.005.038-.006.037-.009.036-.011.036-.012.036-.015.034-.017.034-.023.044-.021.042-.022.044-.023.045-.022.047-.023.049-.024.05-.023.052-.024.053-.024.054-.025.056-.025.057-.025.058-.025.058-.051.121-.052.125-.054.127-.054.129-.055.132-.056.133-.058.134-.029.068-.03.067-.03.068-.03.068-.03.068-.031.068-.031.068-.032.067-.032.068-.032.067-.033.067-.033.067-.033.066-.034.066-.035.066-.035.065-.036.065L40.226,68l-.019.033-.018.031-.019.032-.018.031-.02.032-.019.031-.019.03-.019.031-.02.031-.019.03-.02.03-.021.03-.02.03-.02.029-.021.03-.021.029-.021.029-.022.028-.022.029-.021.028-.023.028-.022.028-.023.028-.023.027-.023.027-.024.027-.024.026-.024.026-.025.027-.025.025-.025.025-.026.025-.026.025-.027.025L39.46,69l-.027.024-.018.015-.018.014-.018.014-.018.014-.019.014-.018.012-.018.013-.019.013-.019.012-.019.011-.019.012-.021.012-.036.019-.038.02-.039.019-.039.017-.038.016-.039.015-.039.013-.039.013-.038.011-.039.01-.038.01-.038.008-.037.008-.038.007-.037,0-.037.006-.037,0-.036,0-.036,0-.036,0-.035,0h-.24l-.032,0-.033,0-.032,0-.032,0-.032,0-.031,0-.031,0-.03,0-.03,0-.03,0-.029,0-.03,0-.056-.01-.055-.01-.054-.01-.052-.01-.05-.011-.048-.01-.046-.011-.086-.019-.034-.008-.033-.008-.034-.008-.033-.009-.033-.009-.033-.009-.032-.009-.033-.009-.032-.01-.032-.01L37,69.157l-.031-.011-.031-.011-.031-.011-.031-.011-.03-.011-.031-.012-.03-.012-.029-.012-.03-.012-.029-.013-.03-.013-.028-.013L36.61,69l-.028-.013-.029-.014-.028-.014-.027-.015-.028-.014-.027-.015-.027-.015-.027-.016-.026-.015-.026-.016-.027-.017-.025-.016-.025-.016-.026-.017-.025-.017-.025-.018-.024-.017-.024-.018-.024-.018-.024-.018-.023-.019-.023-.019-.023-.019L36,68.606l-.022-.019-.022-.02-.022-.019-.021-.02-.021-.021-.021-.02-.021-.021-.02-.021-.02-.02-.02-.022-.02-.021-.019-.022-.018-.021-.019-.022-.018-.023-.018-.022-.018-.022-.018-.023-.016-.022-.017-.023-.017-.024-.016-.023-.016-.023-.016-.023-.015-.024-.016-.024-.015-.024-.014-.023-.014-.024-.014-.025-.014-.023-.013-.025-.014-.025-.012-.024-.013-.024-.012-.025-.012-.025-.012-.025-.011-.025-.012-.025-.011-.025-.01-.026-.011-.025-.01-.025-.01-.026-.01-.025-.01-.026-.009-.026-.009-.025-.008-.025-.009-.026-.008-.026-.008-.026L35.2,67.34l-.015-.051-.014-.052-.013-.052-.013-.052-.012-.053-.011-.052-.01-.053-.009-.053-.009-.053-.009-.053-.007-.053-.007-.054-.006-.053-.006-.053-.005-.054-.005-.053,0-.054,0-.053,0-.054,0-.054,0-.054,0-.054V65.8l0-.055,0-.054,0-.054,0-.055,0-.054,0-.055,0-.054,0-.055,0-.054,0-.055,0-.054.005-.055.01-.109.01-.109.011-.109.012-.108.012-.109.012-.109.012-.108.013-.108.025-.215.025-.214.012-.106.012-.1.012-.1.01-.1.011-.1.009-.1.005-.038.007-.037L35.3,63.1l.011-.036.013-.035L35.335,63l.016-.034.019-.032.02-.032.022-.031.024-.029.025-.028.027-.026.028-.025.03-.023.03-.021.032-.02.033-.018.034-.016.035-.014.036-.012.036-.01.037-.008.037-.006.037,0,.038,0h.037Z" fill-rule="evenodd"/>
            <path id="Path_30" data-name="Path 30" d="M39.691,56.643c-2.032-.253-3.812.59-3.973,1.882s1.358,2.546,3.39,2.8,3.813-.59,3.974-1.882S41.723,56.9,39.691,56.643Z" fill-rule="evenodd"/>
            <path id="Path_31" data-name="Path 31" d="M39.346,59.973l.03,0,.029,0,.029.005.029.006.029.008.028.009.028.01.028.011.027.012.026.014.026.015.025.015.024.017.024.018.023.019.021.02.021.021.02.022.019.023.018.024.017.024.016.025.015.026.014.026.012.027.011.027.01.028.009.029.007.028.006.029.005.03,0,.029,0,.03v.059l0,.029,0,.03,0,.029-.008.051-.008.048-.008.049-.008.049L39.931,61l-.007.049-.007.049-.007.049-.006.05-.006.049-.007.049-.006.049-.011.1-.011.1-.01.1-.01.1-.01.1-.009.1-.008.1-.008.1-.008.1-.008.1-.015.205-.015.206-.015.207-.008.1-.008.1-.008.1-.009.106-.009.106L39.7,63.6l-.01.107-.01.107-.011.107-.011.106,0,.029-.005.03-.007.028-.008.029-.008.028-.011.028-.011.028-.013.026-.013.027-.015.025-.016.025-.017.024-.019.024-.019.022-.02.022-.021.021-.022.02-.023.019-.024.017-.024.017-.025.016-.026.014-.027.014-.027.012-.027.011-.028.01-.029.008-.028.007-.029.006-.03,0-.029,0-.03,0H38.96l-.03,0-.029,0-.029,0-.029,0-.029-.008-.029-.008-.028-.009-.027-.011-.027-.012-.027-.013-.026-.015-.025-.015L38.6,64.5l-.024-.017-.023-.019-.022-.02-.021-.02-.02-.022-.02-.023-.018-.023-.017-.024-.017-.025-.015-.025-.014-.026-.012-.027-.012-.027-.01-.028-.01-.028-.007-.029-.007-.029-.005-.029,0-.029,0-.03,0-.03V63.94l0-.03,0-.029.011-.1.01-.1.01-.1.009-.1.009-.1.009-.1.008-.1.008-.1.008-.1.007-.1.015-.206.015-.207.015-.208.009-.1.008-.1.008-.1.009-.106.01-.106.01-.106.01-.107.011-.107.012-.108.013-.107.006-.054.007-.055.007-.054.007-.054.008-.055.007-.054.008-.055.008-.054.009-.055.008-.055.009-.055.009-.053.006-.029.007-.029.008-.029.009-.028.011-.027.012-.028.013-.026.014-.026.015-.026.016-.024.018-.024.018-.024.02-.022.02-.021.022-.021.022-.019.023-.019.024-.017.025-.017.025-.015L39,60.046l.027-.013.027-.012.028-.01.028-.01.029-.008.028-.007.03-.005.029-.005.029,0,.03,0h.059Z" fill-rule="evenodd"/>
            <path id="Path_32" data-name="Path 32" d="M33.587,59.924l.051.005.05.01.05.013.048.017.047.02.046.024.043.028.041.03L34,60.1l.036.037.033.039.03.042.028.043.029.042.028.042.028.041.028.042.028.041.029.041.028.04.028.04.029.04.029.04.028.039.029.04.029.039.029.039.029.038.029.038.029.039.029.037.029.038.03.037.029.037.03.037.029.037.03.036.029.036.03.036.03.035.03.036.03.035.03.035.03.034.03.035.03.034.03.034.031.034.03.033.03.033.031.033.031.033.03.032.031.032.031.033.031.031.031.032.03.031.031.031.032.031.031.03.031.03.032.031.031.03.031.029.032.029.031.029.032.029.031.029.032.028.032.029.032.027.032.028.032.027.032.028.032.027.032.026.033.027.032.026.032.026.033.026.032.026.033.025.033.025.032.025.033.025.033.024.033.024.033.024.033.024.033.023.033.023.033.024.034.022.033.023.033.022.034.022.033.022.034.022.033.021.034.022.034.021.034.02.034.021.034.02.034.02.034.02.034.02.035.019.034.019.034.019.034.019.035.018.035.019.034.017.035.018.035.018.035.017.034.017.035.017.035.017.035.016.036.017.035.016.035.016.036.015.035.015.036.016.035.015.036.014.036.015.035.014.036.014.036.014.036.013.036.014.037.013.036.013.036.013.036.012.037.012.036.013.037.011.037.012.037.011.036.012.037.011.037.01.037.011.037.01.038.01.037.01.037.01.038.009.037.01.038.009.038.008.037.009.038.008.038.009L39,63.9l.038.007.039.008.038.007.038.007.038.007.039.007.039.006.038.006.039.006.039.006.039.005.039.006.039.005.039.005.039,0,.04.005.039,0,.04,0,.039,0,.04,0,.04,0,.04,0,.04,0,.04,0,.04,0,.04,0,.04,0,.041,0,.04,0h.577l.042,0,.042,0,.042,0,.042,0,.042,0,.042,0,.043,0,.042,0,.043,0,.043,0,.043,0,.042,0,.043-.005.043,0,.044-.005.043-.006.043-.005.044-.006.043-.005.044-.006.044-.007.043-.006.044-.007.044-.007.045-.007.044-.008.044-.007.044-.008.045-.008.045-.009.044-.008.045-.009.045-.009.045-.009.045-.01.045-.01.045-.01.046-.01.045-.01.045-.011.046-.011.046-.011.046-.011.045-.012.046-.012.046-.012.047-.012.046-.013.046-.013.047-.013.046-.013.047-.013.047-.014.046-.014.047-.014.048-.015.046-.014.048-.015.047-.015.047-.016.048-.015.047-.016.048-.016.049-.017.049-.015.05-.011.051-.007.051,0h.052l.051,0,.05.009.05.013.049.016.047.02.046.023.044.027.041.03.039.033.037.037.033.038.031.042.027.043.024.046.02.047.017.048.013.05.009.051.005.051V64.1l0,.051-.007.051-.01.05-.014.05-.018.048L44.4,64.4l-.025.045-.029.043-.032.04-.034.038-.038.035-.04.032-.042.029-.045.025-.046.022-.048.019-.052.017-.052.018-.053.018-.052.017-.053.017-.052.017-.052.016-.053.017-.052.016-.052.015-.052.016-.052.015-.052.015-.052.015-.052.015-.052.014L43.132,65l-.052.014-.051.013-.052.013-.051.014-.052.012-.051.013-.052.012-.051.012-.051.012-.051.011-.051.012-.051.011-.051.01-.051.011-.051.01-.051.01-.051.01-.05.01-.051.009-.05.009-.051.008-.05.009-.051.008-.05.008-.05.008-.051.007-.05.008-.05.006-.05.007-.05.007-.05.006-.049.006-.05,0-.05.006-.05,0-.049,0-.05,0-.049,0-.05,0-.049,0-.049,0-.049,0-.05,0-.049,0-.049,0-.049,0-.049,0h-.048l-.049,0h-.484l-.048,0H40.09l-.048,0-.048,0-.048,0-.048,0-.047,0-.048,0-.047,0-.048,0-.047,0-.047,0-.048,0-.047,0-.047,0-.047,0-.047-.006-.047-.006-.046-.006-.047-.006-.047-.007-.046-.007-.047-.007-.046-.007-.046-.008-.047-.008-.046-.008-.046-.009-.046-.009-.046-.009-.046-.009-.046-.009-.045-.01-.046-.01-.045-.011-.046-.01-.045-.011-.045-.011-.046-.012-.045-.011-.045-.012-.045-.013-.045-.012-.044-.013-.045-.013-.045-.013-.044-.014-.045-.013L37.918,65l-.044-.015-.044-.014-.044-.015-.044-.015-.044-.016-.044-.015-.044-.016-.043-.016-.044-.017-.043-.017-.044-.017-.043-.017-.043-.017-.043-.018-.043-.018-.043-.018-.043-.019-.043-.019-.042-.019-.043-.019-.042-.02-.042-.02-.043-.02-.042-.02-.042-.021-.042-.02-.041-.022-.042-.021-.042-.022-.041-.022-.042-.022-.041-.022-.041-.023-.042-.023-.04-.023-.041-.024-.041-.023-.041-.024-.04-.025-.041-.024-.04-.025-.041-.025-.04-.025-.04-.026-.04-.025-.04-.026-.039-.027-.04-.026-.04-.027-.039-.027-.039-.027-.04-.028-.039-.028-.039-.028-.039-.028-.039-.028-.038-.029-.039-.029-.038-.03-.039-.029-.038-.03-.038-.03-.038-.03-.038-.031-.038-.03-.038-.031-.038-.032-.037-.031-.037-.032-.038-.032-.037-.032-.037-.033-.037-.032-.037-.033L34.87,63.2l-.037-.033-.036-.034L34.76,63.1l-.036-.034-.036-.034L34.652,63l-.036-.035-.036-.035-.036-.036-.036-.035-.035-.036-.036-.036L34.4,62.75l-.035-.036-.036-.037L34.3,62.64l-.035-.038-.034-.037-.035-.038-.035-.038-.034-.038-.035-.039-.034-.039-.034-.039-.034-.039-.034-.039-.034-.04-.034-.04-.034-.04-.033-.041-.033-.04-.034-.041-.033-.042-.033-.041-.033-.042-.033-.041-.033-.043-.033-.042-.032-.042-.033-.043-.032-.043-.032-.043-.032-.044-.032-.044-.032-.044-.032-.044-.032-.044-.032-.045-.031-.045-.031-.045-.032-.046-.031-.045-.031-.046-.031-.046-.031-.046-.03-.046-.027-.044-.023-.045-.019-.048-.016-.049-.013-.049-.008-.051,0-.051v-.052l0-.051.007-.051.011-.05.015-.049.019-.048.022-.046.026-.044.029-.042.032-.04.036-.038.038-.034.04-.032.043-.028.045-.025.046-.021.049-.018.049-.014.05-.011.051-.006.051,0h.052Z" fill-rule="evenodd"/>
            <path id="Path_33" data-name="Path 33" d="M50.44,41.048c-.721-.375-1.465-.376-1.66,0s.233.983.955,1.358,1.466.376,1.66,0S51.162,41.423,50.44,41.048Z" fill="#b7f8ff" fill-rule="evenodd"/>
            <path id="Path_34" data-name="Path 34" d="M21.892,39.2c-.628.516-.922,1.2-.654,1.526s1,.172,1.624-.344.922-1.2.655-1.526-1-.172-1.625.344Z" fill="#b7f8ff" fill-rule="evenodd"/>
            <path id="Path_35" data-name="Path 35" d="M55.12,44.675A7.59,7.59,0,1,0,59.872,54.3,7.594,7.594,0,0,0,55.12,44.675Z" fill="#fff" stroke="#000" stroke-linecap="round" stroke-linejoin="round" stroke-miterlimit="1.5" stroke-width="1.34" fill-rule="evenodd"/>
            <path id="Path_36" data-name="Path 36" d="M28.417,41.93a7.59,7.59,0,1,0,4.752,9.625A7.6,7.6,0,0,0,28.417,41.93Z" fill="#fff" stroke="#000" stroke-linecap="round" stroke-linejoin="round" stroke-miterlimit="1.5" stroke-width="1.34" fill-rule="evenodd"/>
            <path id="Path_37" data-name="Path 37" d="M56.172,51.632a2.7,2.7,0,1,0,1.688,3.419A2.7,2.7,0,0,0,56.172,51.632Z" fill-rule="evenodd"/>
            <path id="Path_38" data-name="Path 38" d="M29.037,49.127a2.7,2.7,0,1,0,1.688,3.418A2.7,2.7,0,0,0,29.037,49.127Z" fill-rule="evenodd"/>
            <path id="Path_39" data-name="Path 39" d="M56.185,52.778a.757.757,0,1,0,.474.96A.758.758,0,0,0,56.185,52.778Z" fill="#fff" fill-rule="evenodd"/>
            <path id="Path_40" data-name="Path 40" d="M29.05,50.272a.757.757,0,1,0,.474.96A.758.758,0,0,0,29.05,50.272Z" fill="#fff" fill-rule="evenodd"/>
          </g>
          <path id="Path_41" data-name="Path 41" d="M24.158,80.17S18.9,76.1,15.117,77.447s-3.4,4.8-.337,4.933,5.927.523,7.479,2.431S27.5,82.708,24.158,80.17Z" fill="#d6c295" stroke="#000" stroke-linecap="round" stroke-linejoin="round" stroke-miterlimit="1.5" stroke-width="1.34" fill-rule="evenodd"/>
        </g>
      </g>
    </g>
    <path id="facebook_workplace_icon_135651" d="M25.2,20.691a2.618,2.618,0,0,1-1.986,1.059c-1.4,0-1.866-1.019-2.29-2.091l-2.118-5.2-2.118,5.2c-.344.874-.741,2.091-2.29,2.091s-1.933-1.218-2.3-2.091L8.548,10.9H11.54L14.4,18.109l2.131-5.255c.331-.834.728-2.091,2.277-2.091,1.509,0,1.933,1.258,2.277,2.091L23.4,18.546A8.919,8.919,0,0,0,15.974,4.727a10.43,10.43,0,0,0-10.06,7.254,10.57,10.57,0,0,0,0,6.526A10.575,10.575,0,0,0,18.82,25.35v2.793a12.953,12.953,0,0,1-2.846.331,13.364,13.364,0,0,1-7.81-2.515,13.2,13.2,0,0,1,0-21.444A13.3,13.3,0,0,1,15.974,2,11.623,11.623,0,0,1,25.2,20.691Z" transform="translate(1252.334 259)" fill="#343d4c"/>
  </g>
</svg>
